<svg width="145" height="90" viewBox="0 0 145 90" fill="none" xmlns="http://www.w3.org/2000/svg">
<path d="M141.926 65.576V49.9855C141.926 45.3266 138.701 41.3081 134.505 40.1778V17.8382C134.505 13.9831 131.279 10.7683 127.411 10.7683H126.12C113.86 10.7683 101.443 8.19386 89.6677 3.21479C84.8293 1.12389 78.8633 0 72.7335 0C66.6036 0 60.8014 1.12392 55.7992 3.21479C43.8672 8.20029 31.6075 10.7683 19.3471 10.7683L17.7406 10.762C13.8725 10.762 10.647 13.9768 10.647 17.832V40.1715C6.45113 41.3017 3.22557 45.3202 3.22557 49.9855V65.5759C1.29152 66.2164 0 68.1503 0 70.2348V86.9485C0 88.5559 1.29149 90 3.06171 90H8.38518C9.51287 90 10.4831 89.3596 10.9682 88.3926L13.7087 83.4071C15.0001 81.1593 17.4194 79.7088 20.1598 79.7088H124.826C127.409 79.7088 129.828 81.153 131.277 83.4071L134.018 88.3926C134.503 89.3596 135.631 90 136.601 90H141.924C143.537 90 144.986 88.7128 144.986 86.9485V70.2348C145.15 68.1439 143.858 66.2163 141.924 65.5759L141.926 65.576ZM17.742 13.9753H19.0335C31.7719 13.9753 44.5171 11.4009 56.7694 6.10167C61.2865 4.17408 66.7674 3.20707 72.4121 3.20707C78.0569 3.20707 83.5378 4.17402 88.0548 6.10167C100.315 11.2441 113.053 13.9753 125.791 13.9753H127.41C129.508 13.9753 131.278 15.746 131.278 17.8305V39.6943H117.405C117.405 37.1199 117.242 34.3886 116.92 31.8206C116.757 30.8537 116.92 29.7297 117.084 28.7692L117.569 26.9985C117.89 26.0315 117.569 24.9076 116.763 24.1039C115.956 23.3002 114.986 22.9799 113.859 23.3002L111.439 23.9406C110.475 24.1039 109.669 24.2671 108.699 24.1039C101.441 23.4634 94.02 23.4634 86.7618 24.1039C85.7916 24.1039 84.9852 24.1039 84.0214 23.9406L81.6022 23.3002C80.632 22.9799 79.5043 23.3002 78.6979 24.1039C77.8915 24.9076 77.5702 25.8746 77.8915 26.9985L78.3766 28.7692C78.5404 29.7361 78.6979 30.6968 78.5404 31.8206C78.2191 34.395 78.0553 37.1263 78.0553 39.6943H67.0871C67.0871 37.1199 66.9233 34.3886 66.602 31.8206C66.4382 30.8537 66.602 29.7297 66.7658 28.7692L67.2509 26.9985C67.5722 26.0315 67.2509 24.9076 66.4445 24.1039C65.6381 23.3002 64.6678 22.9799 63.5402 23.3002L61.121 23.9406C60.1508 24.1039 59.3444 24.2608 58.3806 24.1039C51.123 23.4634 43.7016 23.4634 36.4435 24.1039C35.4733 24.1039 34.6668 24.1039 33.703 23.9406L31.2839 23.3002C30.3137 22.9799 29.1859 23.3002 28.3796 24.1039C27.5732 24.9076 27.2519 25.8746 27.5732 26.9985L28.0583 28.7692C28.222 29.7361 28.3796 30.6968 28.2221 31.8206C27.9008 34.395 27.737 37.1263 27.737 39.6943H13.8644L13.8707 17.8369C13.8707 15.5829 15.6411 13.9755 17.7388 13.9755L17.742 13.9753ZM81.2825 39.6937C81.2825 37.1193 81.4463 34.7082 81.7676 32.1402C81.9314 30.696 81.7676 29.4089 81.4463 27.9584L81.125 26.5142L83.3803 26.9977C84.6718 27.3179 85.7995 27.3179 87.091 27.3179C94.1846 26.6775 101.442 26.6775 108.543 27.3179C109.834 27.4812 111.126 27.3179 112.253 26.9977L114.509 26.5142L114.187 27.9584C113.866 29.2456 113.702 30.6897 113.866 32.1402C114.187 34.7146 114.351 37.1257 114.351 39.6937H81.2825ZM30.9652 39.6937C30.9652 37.1193 31.129 34.7082 31.4503 32.1402C31.6141 30.696 31.4503 29.4089 31.129 27.9584L30.8077 26.5142L33.063 26.9977C34.3545 27.3179 35.4822 27.3179 36.7737 27.3179C43.8674 26.6775 51.1249 26.6775 58.2254 27.3179C59.5169 27.4812 60.8084 27.3179 61.9361 26.9977L64.1914 26.5142L63.8701 27.9584C63.5488 29.2456 63.385 30.6897 63.5488 32.1402C63.8701 34.7146 64.0339 37.1257 64.0339 39.6937H30.9652ZM13.5456 42.9085H131.6C135.468 42.9085 138.693 46.1232 138.693 49.9784V65.2487L6.45157 65.255V49.9847C6.45157 45.9662 9.67746 42.9085 13.5456 42.9085ZM141.926 86.792H136.767L134.026 81.9698C132.092 78.755 128.703 76.6641 124.835 76.6641H20.3247C16.614 76.6641 13.0672 78.755 11.1332 81.9698L8.39272 86.792H3.22681V70.2342C3.22681 69.2672 4.0332 68.4635 5.00345 68.4635H139.992C140.962 68.4635 141.768 69.2672 141.768 70.2342L141.762 86.792H141.926Z" fill="white"/>
</svg>
