<svg width="121" height="73" viewBox="0 0 121 73" fill="none" xmlns="http://www.w3.org/2000/svg">
<path d="M82.0173 60.0277L82.0189 60.0274L99.0389 56.5688C103.695 55.7444 106.022 49.8821 103.186 46.1081L93.1951 31.9231L93.195 31.9231L91.0738 28.9107C93.1612 28.2563 95.3921 27.9056 97.6909 27.9045C127.002 29.1505 126.993 70.8017 97.6913 72.0481C89.4167 72.0442 82.196 67.4903 78.4286 60.7447L82.0173 60.0277Z" stroke="white"/>
<path d="M24.3656 27.9726C23.5001 29.9757 21.6533 34.2004 19.9647 38.0629C18.5939 41.1986 17.3274 44.0956 16.7751 45.3715L16.775 45.3715L16.7727 45.3771C16.4563 46.1333 16.4905 46.8554 16.7752 47.4568C17.0547 48.0473 17.5587 48.487 18.1289 48.7324C18.6991 48.9778 19.3647 49.0416 19.9852 48.8424C20.6171 48.6395 21.1675 48.1745 21.5008 47.4324L21.5029 47.4276L21.0447 47.2275C21.5029 47.4276 21.503 47.4274 21.5031 47.4272L21.5036 47.4259L21.5058 47.421L21.5144 47.4012L21.5484 47.3233L21.681 47.0195L22.1844 45.8662L23.9814 41.7496L29.4355 29.2547L34.8936 16.751L36.6954 12.6235L37.2019 11.4631L37.3363 11.1553C37.3678 11.0833 37.3826 11.0494 37.3823 11.05L37.6637 10.4176L36.9749 10.3492L36.9255 10.8468C36.9749 10.3492 36.9748 10.3492 36.9747 10.3492L36.9743 10.3492L36.9726 10.349L36.9659 10.3483L36.9392 10.3457L36.8353 10.3354L36.4408 10.2962L35.0318 10.1563C33.8651 10.0404 32.3081 9.88569 30.747 9.73031C29.1857 9.57493 27.6204 9.41892 26.437 9.30045C25.8453 9.24122 25.3492 9.19139 24.9969 9.15573C24.6542 9.12104 24.4695 9.10182 24.4467 9.09943L24.4442 9.09918L24.079 9.04305L23.9182 9.37568C23.4197 10.4062 23.0238 12.1498 24.5005 13.9457L24.5011 13.9464C25.0556 14.6183 24.9574 15.6072 24.285 16.1571L24.2839 16.158C23.6144 16.7089 22.6235 16.6177 22.0692 15.9421C19.841 13.2252 20.0958 10.3922 20.9314 8.3761L21.0939 7.98388L20.7332 7.7599C20.6415 7.70297 20.5648 7.65844 20.4961 7.61853C20.3836 7.55329 20.2925 7.50038 20.1919 7.42576L20.1804 7.41719L20.1683 7.4093C18.8839 6.56612 17.4771 4.94777 16.8851 3.45135C16.5889 2.70259 16.5264 2.06014 16.6953 1.58019C16.8495 1.14214 17.2352 0.733532 18.0975 0.502266C18.9619 0.457338 19.697 1.08236 19.7743 1.92573C19.7744 1.92608 19.7744 1.92641 19.7744 1.92675L20.2724 1.88144C20.3397 2.6583 21.1382 3.64239 22.4551 4.56432M24.3656 27.9726L22.1676 4.97343M24.3656 27.9726C11.7085 26.86 0.418137 37.1707 0.500448 49.9531C1.25082 76.9862 39.3119 80.1504 44.4225 53.4304C45.9038 43.5843 40.9683 34.7376 32.8554 30.448L32.4452 30.2311L32.631 29.8059L35.2648 23.777L35.5851 23.0439L36.1037 23.653L59.5898 51.2389L59.8377 51.5301L59.6215 51.8457C58.8101 53.03 58.3351 54.4498 58.3351 55.9862C58.3351 57.3165 58.7206 58.5517 59.3514 59.6409L59.5061 59.9082L59.3364 60.1662L57.0915 63.5794L56.8067 64.0124L56.3842 63.7123L52.4447 60.9145C52.4437 60.9138 52.4427 60.9131 52.4417 60.9124C51.9909 60.6032 51.5674 60.5533 51.2103 60.6377C50.8411 60.7249 50.5047 60.9654 50.2697 61.2972C50.0347 61.629 49.9189 62.0269 49.9584 62.4048C49.9966 62.7704 50.1828 63.1528 50.6202 63.4741C50.6211 63.4748 50.6221 63.4755 50.623 63.4762L56.3151 67.517L56.3229 67.5226L56.3229 67.5227C57.008 68.0292 58.0815 67.8305 58.5373 67.1087L58.5425 67.1005L58.5426 67.1006L61.5289 62.5686L61.7923 62.1688L62.2031 62.4146C64.3394 63.6926 66.9019 63.5788 69.0114 62.5025C71.1219 61.4258 72.7243 59.4134 72.9693 56.962L73.007 56.5841L73.3813 56.5191C74.1625 56.3835 80.315 55.1365 86.289 53.9198C89.2723 53.3122 92.2062 52.7132 94.3943 52.2661C95.4883 52.0426 96.3959 51.857 97.03 51.7273L97.7651 51.5769L97.9583 51.5374L98.0079 51.5272L98.0204 51.5247L98.0235 51.524L98.0243 51.5239C98.0243 51.5239 98.0244 51.5239 98.0247 51.5256C98.0248 51.5256 98.0249 51.5256 98.0249 51.5256L98.0246 51.5238L98.0251 51.5256C98.6025 51.3996 99.0922 50.9193 99.2135 50.3624L99.2165 50.3488L99.2202 50.3353C99.3357 49.9185 99.2455 49.4625 98.9878 49.0667L98.9794 49.0548L98.9399 48.9988L98.7857 48.7801L98.1986 47.9479L96.0905 44.9592C94.3385 42.4755 91.9848 39.139 89.5781 35.7277C84.7645 28.9047 79.7396 21.7839 78.892 20.5886L78.7504 20.3889L78.8213 20.1546L79.2998 20.2994M22.4551 4.56432L22.1669 4.97295C22.1672 4.97311 22.1674 4.97327 22.1676 4.97343M22.4551 4.56432L22.1683 4.97392C22.1681 4.97376 22.1679 4.9736 22.1676 4.97343M22.4551 4.56432C23.2484 5.12368 24.1972 5.44481 25.1667 5.53804M22.1676 4.97343C23.0399 5.58829 24.0735 5.93518 25.1185 6.03571L25.1181 6.03567L25.1667 5.53804M25.1667 5.53804L25.1188 6.03574L40.1176 7.50148L40.1248 7.50218L40.1321 7.50268C41.1448 7.57191 41.845 8.7668 41.4144 9.68089L41.4113 9.68737L41.4085 9.69394L39.3398 14.4331L39.0644 15.0639L39.7494 15.1307L75.5752 18.6268L75.9818 18.6665L76.1017 18.2759L79.368 7.63748L79.5774 6.95565L78.865 6.99135L72.7766 7.29658L72.7928 7.79631M25.1667 5.53804L40.1662 7.00385C41.5297 7.09706 42.4474 8.66127 41.8667 9.89397L40.0083 14.1512L39.8466 14.1355L39.798 14.6331L40.2562 14.8331L40.3213 14.6842L75.6237 18.1292L78.7339 7.99918L78.9151 7.9901L78.89 7.49073L78.4121 7.34397L78.3588 7.51735L72.7928 7.79631M72.7928 7.79631L72.7678 7.29694L72.7724 7.29671C72.2322 7.31327 71.8487 7.12837 71.5912 6.86501C71.3253 6.59295 71.169 6.21045 71.1469 5.80671C71.1249 5.40306 71.2387 5.00772 71.4742 4.7106C71.702 4.42317 72.0667 4.19777 72.6162 4.15705L72.6106 4.15733L72.5854 3.65796M72.7928 7.79631C70.0864 7.88436 69.8479 3.85478 72.5854 3.65796M72.5854 3.65796L72.6213 4.15668L87.1124 3.42704L87.1124 3.42713L87.1218 3.42647C87.956 3.36859 88.7219 4.04413 88.7653 4.91555C88.8086 5.78592 88.1433 6.52345 87.2749 6.56664L87.2742 6.56667L83.1161 6.77903L82.6011 6.80533L82.6382 7.25734M72.5854 3.65796L87.0872 2.92767C88.2071 2.84997 89.2077 3.74606 89.2647 4.8907C89.3217 6.03532 88.4455 7.00905 87.2997 7.06602L83.641 7.25288C83.6407 7.2478 83.6404 7.24266 83.6399 7.23747L83.1416 7.27838C83.1417 7.27882 83.1417 7.2793 83.1417 7.27982C83.149 7.57663 79.2998 20.2994 79.2998 20.2994M79.2998 20.2994C78.8213 20.1546 78.8213 20.1545 78.8213 20.1544L78.8214 20.154L78.822 20.1523L78.8241 20.1454L78.8323 20.118L78.8646 20.0112L78.9871 19.6057C79.0927 19.2562 79.2434 18.7566 79.4243 18.1563C79.786 16.9556 80.2681 15.3522 80.7495 13.7409C81.2309 12.1294 81.7114 10.511 82.0701 9.28009C82.2495 8.66432 82.398 8.14725 82.5007 7.77703C82.5522 7.59145 82.5914 7.44572 82.6171 7.34396C82.6264 7.30748 82.6333 7.27885 82.6382 7.25734M79.2998 20.2994C80.9961 22.6913 99.4014 48.7856 99.4014 48.7856M82.6382 7.25734L82.6433 7.31929C82.6401 7.27979 82.6427 7.24995 82.6433 7.243L82.6433 7.24281C82.6437 7.23836 82.6441 7.23451 82.6445 7.23141C82.6451 7.22685 82.6455 7.22391 82.6456 7.22303C82.6461 7.22 82.6458 7.22282 82.6433 7.23439C82.6419 7.24087 82.6402 7.24851 82.6382 7.25734Z" stroke="white"/>
</svg>
