<svg width="109" height="86" viewBox="0 0 109 86" fill="none" xmlns="http://www.w3.org/2000/svg">
<path d="M103.229 37.6961C102.62 37.0139 102.681 35.9668 103.363 35.3628C104.045 34.7545 105.092 34.8153 105.696 35.4975C106.717 36.6445 107.712 37.8395 108.651 39.0517C109.211 39.7729 109.077 40.8114 108.355 41.3718C108.056 41.6065 107.699 41.7194 107.343 41.7194C106.848 41.7194 106.361 41.4978 106.035 41.0807C105.145 39.9206 104.202 38.7867 103.229 37.6961ZM95.0085 29.9794C96.4814 31.1352 97.9238 32.3734 99.2881 33.6553C99.6052 33.9551 100.014 34.1028 100.418 34.1028C100.856 34.1028 101.3 33.929 101.625 33.5814C102.251 32.9166 102.216 31.8694 101.552 31.2437C100.113 29.8925 98.5973 28.5933 97.0462 27.3766C96.3293 26.8118 95.2866 26.9378 94.7261 27.6591C94.1657 28.376 94.2917 29.4145 95.0085 29.9794ZM85.5546 23.8356C87.2099 24.7133 88.8478 25.6735 90.4162 26.6946C90.6943 26.8771 91.0071 26.9596 91.3156 26.9596C91.8587 26.9596 92.3887 26.6946 92.7015 26.2079C93.1968 25.4432 92.9839 24.4178 92.2149 23.9225C90.5596 22.8492 88.8391 21.8369 87.0969 20.9157C86.2888 20.4899 85.2895 20.7984 84.8637 21.6023C84.4423 22.4104 84.7465 23.4098 85.5546 23.8356ZM3.73644 41.368C4.03622 41.6026 4.39683 41.7156 4.74875 41.7156C5.24404 41.7156 5.73064 41.494 6.05651 41.0768C7.20345 39.5952 8.43302 38.1483 9.70597 36.7753C10.3273 36.1062 10.2882 35.059 9.61908 34.4376C8.95 33.8163 7.9029 33.8554 7.28161 34.5245C5.93914 35.9714 4.64873 37.4922 3.44096 39.052C2.88484 39.7689 3.01523 40.8075 3.73644 41.368ZM21.8581 26.2782C22.1578 26.2782 22.4576 26.2 22.7313 26.0306C24.3215 25.0399 25.9768 24.11 27.6495 23.2671C28.4663 22.8544 28.7921 21.8637 28.3794 21.0468C27.971 20.23 26.9718 19.9041 26.1593 20.3169C24.3997 21.2032 22.6575 22.1809 20.9849 23.2237C20.2115 23.706 19.9725 24.7271 20.4548 25.5005C20.7676 26.0002 21.3063 26.2782 21.8581 26.2782ZM12.617 33.2346C13.0123 33.2346 13.4077 33.0955 13.7248 32.8088C15.1195 31.5531 16.5793 30.3452 18.0782 29.2198C18.8081 28.6723 18.9515 27.6338 18.4041 26.9039C17.8567 26.174 16.8183 26.0306 16.0884 26.578C14.5156 27.7642 12.9733 29.0329 11.5091 30.3581C10.8314 30.9708 10.7792 32.0136 11.3875 32.6914C11.7177 33.0521 12.1651 33.2346 12.617 33.2346ZM108.999 84.3445C108.999 85.257 108.26 86 107.343 86H4.74868V85.9913C2.11146 85.8827 0 83.7058 0 81.0424V63.2586C0 60.5256 2.22013 58.3053 4.95289 58.3053H12.013V55.4333C12.013 54.0082 12.7646 52.8263 13.8421 52.3658C18.5821 46.1263 24.7167 40.9389 31.6512 37.3317C39.1284 33.4429 47.5661 31.3877 56.0469 31.3877C62.5074 31.3877 68.8031 32.5347 74.7903 34.8028C77.0147 31.8308 80.56 29.9061 84.544 29.9061C91.2565 29.9061 96.7218 35.3678 96.7218 42.0848C96.7218 44.1226 95.9615 46.2213 94.8146 48.2678C103.973 58.1049 109 70.8657 109 84.3447L108.999 84.3445ZM75.6706 42.0897C75.6706 46.1002 80.2629 51.2229 83.6169 54.9682C83.9341 55.3201 84.2426 55.6677 84.5424 56.0023C84.8421 55.6677 85.1506 55.3201 85.4678 54.9682C88.8218 51.2271 93.4141 46.1 93.4141 42.0897C93.4141 37.1973 89.4344 33.2172 84.5423 33.2172C79.6502 33.2172 75.6706 37.1972 75.6706 42.0897ZM72.3643 42.0897C72.3643 40.556 72.651 39.0874 73.1723 37.736C70.6003 36.7888 67.9631 36.0589 65.2824 35.5549C63.3968 40.0345 62.2021 45.4094 65.7473 47.8816C71.6908 52.0354 70.8697 57.9142 70.3266 61.8078C70.1702 62.9115 69.9399 64.5756 70.1658 64.9841C70.2223 65.0101 70.3874 65.0579 70.7002 65.0666C72.6726 65.1057 73.9674 64.7972 75.0014 64.5452C76.144 64.2715 77.2259 64.0108 78.2903 64.6712C79.2896 65.2969 79.7675 66.444 80.2497 68.2167C80.4192 68.8381 80.7363 69.6158 81.2751 69.7765C82.1397 70.0372 83.9296 69.19 85.6153 67.717C86.9405 66.5525 88.2482 66.4091 89.1084 66.496C91.5111 66.7306 93.4835 68.8944 95.2517 71.2016C95.3256 71.3016 96.0511 71.5579 97.9801 70.9105C99.4573 70.4152 101.265 69.5071 103.068 68.3643C100.926 62.0554 97.5152 56.2067 92.9578 51.149C91.3676 53.3389 89.5255 55.3983 87.931 57.1798C87.1446 58.0575 86.406 58.883 85.8152 59.5957C85.5024 59.9737 85.0332 60.191 84.5423 60.191C84.0513 60.191 83.5864 59.9737 83.2693 59.5957C82.6784 58.8831 81.9398 58.0576 81.1535 57.1798C77.4475 53.0347 72.3643 47.3641 72.3643 42.0897ZM18.2563 52.1571H21.1889C22.7791 52.1571 24.0217 53.5954 24.0217 55.4289V58.3009H31.0818C33.8146 58.3009 36.0347 60.5212 36.0347 63.2542V81.0424C36.0347 81.6203 35.9348 82.1764 35.7523 82.6892H52.4013C51.7453 81.5682 50.0465 80.3255 48.4911 79.1915C46.0495 77.4057 43.5252 75.5634 43.2297 73.0651C43.082 71.8397 43.4861 70.6536 44.4245 69.5456C45.8278 67.8858 46.5925 65.7393 46.3666 64.0795C46.2275 63.0584 45.7409 62.272 44.8764 61.6811C42.6779 60.1777 41.4615 58.2182 41.3528 56.0152C41.2095 53.1127 43.0038 50.08 46.6838 47.0036C49.347 44.779 48.2522 39.3173 47.0531 35.529C35.9085 37.5972 25.686 43.4587 18.2563 52.1571ZM9.24544 61.6118V82.6892H26.7887V61.6118H9.24544ZM15.3192 58.3052H20.7153V55.4679H15.3192V58.3052ZM4.95289 82.6895H5.93913V61.6122H4.95289C4.04485 61.6122 3.30623 62.3508 3.30623 63.259V81.0427C3.30623 81.9508 4.04482 82.6895 4.95289 82.6895ZM31.0815 82.6895C31.9895 82.6895 32.7281 81.9509 32.7281 81.0427V63.259C32.7281 62.3509 31.9895 61.6122 31.0815 61.6122H30.0952V82.6895H31.0815ZM105.667 82.6895C105.545 78.9181 104.998 75.2161 104.055 71.6358C101.809 72.9827 98.5154 74.6382 95.8652 74.6382C94.5661 74.6382 93.4235 74.2428 92.6328 73.2131C92.0072 72.3962 90.0999 69.9153 88.7878 69.7849C88.5749 69.7632 88.2665 69.7936 87.7972 70.2064C86.2071 71.5925 83.1268 73.7954 80.32 72.9437C79.2208 72.6135 77.7653 71.675 77.0615 69.0853C76.8269 68.225 76.6575 67.7948 76.5575 67.5819C76.3447 67.6166 76.0405 67.6949 75.7799 67.7557C74.6893 68.0207 73.0428 68.4161 70.6358 68.3683C69.3323 68.3423 68.3331 67.9251 67.6553 67.1343C66.4432 65.7136 66.7256 63.6887 67.0514 61.3468C67.5597 57.7058 68.1332 53.5823 63.8581 50.5929C60.9081 48.5333 58.3143 44.1754 61.9247 35.0382C59.9869 34.8123 58.0275 34.695 56.0508 34.695C54.1435 34.695 52.2448 34.808 50.3722 35.0252C52.5012 42.0076 51.9841 46.887 48.8169 49.5377C46.0146 51.8796 44.5808 54.0651 44.6677 55.8509C44.7242 56.998 45.4237 58.0409 46.7531 58.949C48.3868 60.0656 49.3904 61.6863 49.6554 63.6328C50.003 66.2181 48.9733 69.2988 46.9617 71.6798C46.4751 72.2577 46.5098 72.5705 46.5229 72.6748C46.6489 73.7437 48.7604 75.2862 50.4504 76.5244C52.8312 78.2624 55.4598 80.1873 55.9334 82.6944L105.667 82.6895ZM33.1847 4.65364C33.1326 4.14093 33.3194 3.63692 33.693 3.28493C34.0667 2.93298 34.5837 2.77222 35.0877 2.85478L38.546 3.40659C39.024 3.4848 39.4454 3.76722 39.6974 4.17999L42.8691 9.407L48.9168 9.37659L44.6678 2.52893C44.3506 2.01188 44.3332 1.36444 44.633 0.83876C44.9328 0.313012 45.4976 -0.00851552 46.1015 0.000171694L50.2767 0.0783816C50.6677 0.0870722 51.0414 0.230457 51.3325 0.486813L61.4294 9.31585L71.2093 9.26805H71.2484C73.2773 9.26805 75.189 10.0545 76.6358 11.4884C78.0956 12.9309 78.9038 14.8513 78.9125 16.8936L78.9168 17.8842C78.9212 18.3231 78.7474 18.7445 78.4389 19.0574C78.1304 19.3702 77.709 19.544 77.2702 19.5484L64.9055 19.6092L52.6965 29.72C52.401 29.9676 52.0274 30.098 51.6407 30.098H51.619L47.4438 30.0371C46.8399 30.0284 46.2881 29.6895 46.0057 29.1594C45.7233 28.625 45.7537 27.9819 46.0839 27.4736L51.3148 19.531L39.9967 19.0487C36.8729 18.914 34.3834 16.559 34.0706 13.4524L33.1847 4.65364ZM52.8012 9.35931L56.4376 9.34193L49.6165 3.38056L49.0821 3.37188L52.8012 9.35931ZM36.6916 6.45682L37.365 13.1264C37.5127 14.582 38.6814 15.6856 40.1413 15.7508L54.3745 16.3548C54.9697 16.3808 55.5041 16.7241 55.7778 17.2542C56.0472 17.7843 56.0168 18.4187 55.6866 18.9183L50.5121 26.7784L51.0596 26.7871L63.2641 16.6894C63.5595 16.446 63.9288 16.3113 64.3112 16.3113L75.5636 16.2549C75.4202 15.3467 74.9901 14.5082 74.321 13.8433C73.4956 13.0265 72.4093 12.579 71.2581 12.579H71.2363L41.9535 12.718H41.9448C41.3669 12.718 40.8325 12.4182 40.5328 11.9229L37.2699 6.54816L36.6916 6.45682ZM79.1133 42.09C79.1133 39.0963 81.5506 36.6587 84.5441 36.6587C87.5332 36.6587 89.9662 39.0963 89.9662 42.09C89.9662 45.0793 87.5332 47.5125 84.5441 47.5125C81.5506 47.5125 79.1133 45.0793 79.1133 42.09ZM82.424 42.09C82.424 43.2588 83.3754 44.2059 84.5441 44.2059C85.7128 44.2059 86.6599 43.2544 86.6599 42.09C86.6599 40.9211 85.7084 39.9697 84.5441 39.9697C83.3754 39.9697 82.424 40.9212 82.424 42.09Z" fill="white"/>
</svg>
