<svg width="84" height="84" viewBox="0 0 84 84" fill="none" xmlns="http://www.w3.org/2000/svg">
<path d="M41.977 6.06269C41.0942 6.06269 40.3793 6.77753 40.3793 7.66039V12.3245C40.3793 13.2073 41.0941 13.9222 41.977 13.9222C42.8559 13.9222 43.5708 13.2074 43.5708 12.3245V7.66039C43.5708 6.77758 42.856 6.06269 41.977 6.06269ZM66.243 16.1137C65.8328 16.1137 65.4227 16.2699 65.1102 16.5824C64.4852 17.2074 64.4852 18.2152 65.1102 18.8402C65.4227 19.1527 65.8329 19.309 66.2391 19.309C66.6493 19.309 67.0594 19.1527 67.368 18.8402H67.3719C67.993 18.2152 67.993 17.2035 67.3719 16.5824C67.0594 16.2699 66.6492 16.1137 66.243 16.1137ZM17.712 16.1137C17.3018 16.1137 16.8917 16.2699 16.5792 16.5824C15.9581 17.2035 15.9581 18.2152 16.5792 18.8402H16.5831C16.8956 19.1527 17.3019 19.309 17.712 19.309C18.1183 19.309 18.5284 19.1527 18.8409 18.8402C19.4659 18.2152 19.4659 17.2074 18.8409 16.5824C18.5284 16.2699 18.1182 16.1137 17.712 16.1137ZM7.661 40.3797C6.77819 40.3797 6.0633 41.0945 6.0633 41.9774C6.0633 42.8563 6.77814 43.5751 7.661 43.5751H12.3251C13.2079 43.5751 13.9228 42.8563 13.9228 41.9774C13.9228 41.0946 13.208 40.3797 12.3251 40.3797H7.661ZM71.626 40.3797C70.7432 40.3797 70.0283 41.0945 70.0283 41.9774C70.0283 42.8563 70.7431 43.5751 71.626 43.5751H76.294C77.1729 43.5751 77.8917 42.8563 77.8917 41.9774C77.8917 41.0946 77.173 40.3797 76.294 40.3797H71.626ZM41.978 18.1917V18.1956C41.0952 18.1917 40.3803 18.9104 40.3803 19.7894V41.9774C40.3803 42.4579 40.6186 42.8719 40.9272 43.1844L54.2942 56.5554C54.6067 56.8679 55.0168 57.0242 55.4231 57.0242C55.8332 57.0242 56.2395 56.8679 56.552 56.5554C57.177 55.9343 57.177 54.9226 56.552 54.2976L43.572 41.3176V19.7906C43.572 18.9117 42.8571 18.1929 41.9782 18.1929V18.1968L41.978 18.1917ZM17.712 64.6407V64.6446C17.3018 64.6407 16.8956 64.7969 16.5831 65.1094V65.1133C15.9581 65.7344 15.9581 66.7461 16.5792 67.3711C16.8917 67.6836 17.3019 67.8399 17.712 67.8399C18.1182 67.8399 18.5284 67.6836 18.8409 67.3711C19.4659 66.7461 19.4659 65.7345 18.8409 65.1095C18.5284 64.797 18.1222 64.6407 17.712 64.6407ZM66.239 64.6446C65.8327 64.6446 65.4226 64.7969 65.1101 65.1094C64.4851 65.7344 64.4851 66.7461 65.1101 67.3711C65.4226 67.6836 65.8328 67.8399 66.239 67.8399C66.6492 67.8399 67.0593 67.6836 67.3718 67.3711C67.9929 66.7461 67.9929 65.7344 67.3718 65.1133L67.3679 65.1094C67.0593 64.7969 66.6491 64.6446 66.239 64.6446ZM41.977 70.0274V70.0313C41.0942 70.0274 40.3793 70.7422 40.3793 71.6251V76.2931C40.3793 77.1759 41.0941 77.8908 41.977 77.8908C42.8559 77.8908 43.5708 77.176 43.5708 76.2931V71.6251C43.5708 70.7423 42.856 70.0274 41.977 70.0274ZM41.977 3.1914V3.19531C63.395 3.1914 80.758 20.5543 80.758 41.9763C80.758 63.3943 63.395 80.7573 41.977 80.7573C20.555 80.7573 3.192 63.3943 3.192 41.9763C3.192 20.5543 20.555 3.1914 41.977 3.1914ZM41.977 0C18.793 0 0 18.793 0 41.977C0 65.157 18.793 83.954 41.977 83.954C65.157 83.954 83.954 65.157 83.954 41.977C83.954 18.793 65.157 0 41.977 0Z" fill="white"/>
</svg>
