<svg width="71" height="71" viewBox="0 0 71 71" fill="none" xmlns="http://www.w3.org/2000/svg">
<path d="M70.2222 35.5674C70.222 42.4463 68.182 49.1706 64.3601 54.8901C60.5383 60.6097 55.1062 65.0678 48.7509 67.7002C42.3955 70.3326 35.4023 71.0213 28.6556 69.6792C21.9088 68.3371 15.7115 65.0243 10.8473 60.1602C5.98318 55.296 2.67059 49.0988 1.32853 42.3521C-0.013538 35.6053 0.675163 28.6122 3.30753 22.2568C5.9399 15.9015 10.3977 10.4693 16.1172 6.64746C21.8368 2.8256 28.5613 0.785354 35.4402 0.785156C44.6618 0.795479 53.5027 4.46372 60.0233 10.9844C66.544 17.505 70.2119 26.3458 70.2222 35.5674ZM2.06119 35.5674C2.06119 42.1694 4.01892 48.623 7.6868 54.1123C11.3547 59.6016 16.5679 63.8803 22.6674 66.4067C28.7668 68.9332 35.4785 69.5942 41.9536 68.3062C48.4288 67.0181 54.3765 63.8388 59.0447 59.1704C63.7129 54.502 66.8921 48.5543 68.18 42.0791C69.4678 35.604 68.8065 28.8923 66.2799 22.793C63.7533 16.6936 59.4748 11.4802 53.9854 7.8125C48.4959 4.14478 42.0422 2.1873 35.4402 2.1875C26.5904 2.19729 18.1059 5.71723 11.8482 11.9751C5.5905 18.233 2.07072 26.7176 2.06119 35.5674Z" fill="white"/>
<path d="M36.2169 51.5447L47.234 40.5276C47.3439 40.4335 47.4341 40.3187 47.4996 40.1897C47.5651 40.0607 47.6046 39.9201 47.6158 39.7759C47.627 39.6316 47.6099 39.4866 47.565 39.349C47.5202 39.2114 47.4487 39.084 47.3546 38.9741C47.2605 38.8642 47.1457 38.7739 47.0167 38.7084C46.8877 38.6428 46.7469 38.6034 46.6026 38.5922C46.4584 38.581 46.3134 38.5983 46.1759 38.6432C46.0383 38.6881 45.9108 38.7595 45.8009 38.8536C45.7576 38.8902 45.7178 38.9304 45.6812 38.9736L36.5362 48.1077L36.5362 20.3677C36.5362 20.0759 36.4203 19.7961 36.214 19.5898C36.0077 19.3836 35.7279 19.2676 35.4361 19.2676C35.1444 19.2676 34.8646 19.3836 34.6583 19.5898C34.452 19.7961 34.336 20.0759 34.336 20.3677L34.336 48.1077L25.2032 38.9736C25.0131 38.7516 24.7422 38.6143 24.4508 38.5918C24.1593 38.5693 23.871 38.6635 23.649 38.8536C23.427 39.0438 23.2897 39.3144 23.2672 39.6058C23.2447 39.8973 23.3387 40.1856 23.5289 40.4076C23.5659 40.4505 23.6061 40.4906 23.649 40.5276L34.6671 51.5447C34.8733 51.7502 35.1524 51.8655 35.4435 51.8655C35.7345 51.8655 36.0136 51.7502 36.2198 51.5447" fill="white"/>
</svg>
