<svg width="44" height="44" viewBox="0 0 44 44" fill="none" xmlns="http://www.w3.org/2000/svg">
<path d="M43.7362 21.6976C43.7361 25.9888 42.4664 30.1834 40.0878 33.7514C37.7093 37.3193 34.3286 40.1004 30.3732 41.7425C26.4179 43.3846 22.0656 43.8142 17.8666 42.977C13.6677 42.1398 9.81074 40.0732 6.78347 37.0389C3.75621 34.0046 1.69458 30.1387 0.859328 25.93C0.0240773 21.7212 0.452699 17.3589 2.09099 13.3943C3.72927 9.42976 6.50362 6.04111 10.0633 3.65698C13.6229 1.27285 17.808 0.000123379 22.0892 0C27.8283 0.00643933 33.3306 2.29474 37.3888 6.3624C41.447 10.4301 43.7298 15.9451 43.7362 21.6976ZM1.31531 21.6976C1.31531 25.816 2.53373 29.8418 4.81648 33.2662C7.09924 36.6905 10.3438 39.3596 14.1398 40.9356C17.9359 42.5116 22.113 42.924 26.1429 42.1205C30.1728 41.317 33.8744 39.3337 36.7797 36.4215C39.6851 33.5093 41.6637 29.799 42.4652 25.7597C43.2667 21.7204 42.8551 17.5336 41.2827 13.7288C39.7102 9.92388 37.0474 6.67172 33.631 4.38375C30.2146 2.09578 26.198 0.874677 22.0892 0.8748C16.5814 0.88091 11.3009 3.07669 7.40637 6.98043C3.51182 10.8842 1.32124 16.177 1.31531 21.6976Z" fill="white"/>
<path d="M32.1171 20.973L25.2032 14.0704C25.1442 14.0016 25.0721 13.9451 24.9912 13.904C24.9102 13.8629 24.822 13.8382 24.7315 13.8312C24.6409 13.8242 24.5499 13.8349 24.4636 13.863C24.3772 13.8911 24.2973 13.9359 24.2283 13.9949C24.1593 14.0538 24.1027 14.1257 24.0615 14.2066C24.0204 14.2874 23.9956 14.3756 23.9886 14.466C23.9816 14.5564 23.9925 14.6472 24.0206 14.7334C24.0488 14.8195 24.0937 14.8994 24.1527 14.9683C24.1757 14.9954 24.2009 15.0203 24.228 15.0433L29.9601 20.7729H12.5517C12.3686 20.7729 12.193 20.8456 12.0636 20.9748C11.9341 21.1041 11.8613 21.2794 11.8613 21.4622C11.8613 21.645 11.9341 21.8203 12.0636 21.9495C12.193 22.0788 12.3686 22.1514 12.5517 22.1514H29.9601L24.228 27.8735C24.0887 27.9926 24.0025 28.1623 23.9884 28.3449C23.9743 28.5275 24.0334 28.7081 24.1527 28.8472C24.272 28.9863 24.4419 29.0724 24.6247 29.0865C24.8076 29.1006 24.9886 29.0416 25.1279 28.9225C25.1548 28.8993 25.18 28.8741 25.2032 28.8472L32.1171 21.944C32.246 21.8148 32.3184 21.64 32.3184 21.4576C32.3184 21.2752 32.246 21.1004 32.1171 20.9712" fill="white"/>
</svg>
