<svg width="44" height="45" viewBox="0 0 44 45" fill="none" xmlns="http://www.w3.org/2000/svg">
<path d="M0.658114 22.0091C0.658114 18.7653 0.632739 15.5211 0.664172 12.2773C0.713803 7.06691 3.02891 3.29494 7.61732 1.0349C9.11213 0.333246 10.7425 -0.0121028 12.3862 0.0237066C18.8631 0.0186183 25.3398 -0.0360541 31.815 0.04027C36.8559 0.0996332 40.4644 2.59267 42.6076 7.25776C43.2624 8.76286 43.5829 10.3986 43.5463 12.0462C43.5463 18.6856 43.6034 25.326 43.5289 31.9645C43.471 37.1325 41.0393 40.8307 36.4889 43.0297C35.021 43.7012 33.4257 44.0295 31.8186 43.9912C25.3426 43.9912 18.8654 44.0493 12.3902 43.973C7.34933 43.9153 3.74041 41.4214 1.59799 36.7555C0.932899 35.2136 0.611425 33.5388 0.657306 31.8536C0.660063 28.5722 0.660319 25.291 0.658114 22.0091ZM22.1428 2.6283V2.60594C18.9424 2.60594 15.7421 2.61272 12.5409 2.60594C11.3018 2.5756 10.0695 2.80375 8.91909 3.27676C7.76871 3.74976 6.72431 4.4574 5.84904 5.35712C4.97378 6.25683 4.28625 7.32932 3.82792 8.50996C3.3696 9.69059 3.15002 10.9549 3.1829 12.2251C3.1647 18.7491 3.17628 25.274 3.1829 31.7989C3.16769 32.3329 3.19544 32.8671 3.2657 33.3964C3.57046 35.6509 4.67197 37.7126 6.36119 39.1895C8.05041 40.6663 10.2098 41.4557 12.4294 41.4081C18.8682 41.437 25.3059 41.4139 31.7447 41.4164C33.1076 41.4514 34.4596 41.1593 35.6928 40.5634C37.3333 39.8223 38.7189 38.5924 39.6688 37.0338C40.6188 35.4752 41.0897 33.6602 41.0203 31.8237C41.0459 25.2802 41.0285 18.7363 41.0251 12.1937C41.0309 11.5261 40.9781 10.8597 40.8672 10.2019C40.4968 8.1494 39.4592 6.28546 37.9236 4.91487C36.388 3.54428 34.4447 2.74751 32.4108 2.65397C28.9953 2.55729 25.5665 2.6283 22.1428 2.6283Z" fill="white"/>
<path d="M33.8264 21.9953C33.8285 24.3731 33.1429 26.6988 31.8562 28.677C30.5694 30.6552 28.7393 32.1974 26.5974 33.1093C24.4555 34.0212 22.0979 34.2618 19.8228 33.8C17.5477 33.3382 15.4574 32.1945 13.8159 30.5147C12.1745 28.8349 11.0558 26.6939 10.6013 24.3622C10.1468 22.0306 10.3772 19.6131 11.2629 17.4155C12.1486 15.218 13.6501 13.3394 15.5774 12.0167C17.5046 10.694 19.771 9.98639 22.0903 9.98438C25.1973 9.99107 28.1757 11.2586 30.3747 13.5091C32.5736 15.7595 33.8144 18.81 33.8264 21.9953ZM31.3036 21.9895C31.3005 20.1227 30.7571 18.299 29.7425 16.7489C28.728 15.1987 27.2879 13.9921 25.6042 13.2813C23.9204 12.5706 22.0691 12.3878 20.284 12.7563C18.499 13.1247 16.8604 14.0276 15.5761 15.3509C14.2918 16.6742 13.4195 18.358 13.0691 20.1899C12.7188 22.0218 12.9062 23.9192 13.6079 25.6417C14.3097 27.3643 15.4941 28.8348 17.0112 29.8671C18.5284 30.8993 20.3102 31.4476 22.131 31.4414C24.5673 31.4298 26.9 30.4296 28.6189 28.6596C30.3378 26.8895 31.303 24.493 31.3036 21.9953V21.9895Z" fill="white"/>
<path d="M34.1122 5.72412C35.0237 5.73066 35.8965 6.10288 36.5437 6.76099C37.1909 7.4191 37.561 8.31108 37.5748 9.2455C37.5735 10.1872 37.2075 11.0891 36.557 11.754C35.9066 12.419 35.0251 12.7922 34.1066 12.7909C33.188 12.7895 32.3075 12.4142 31.6589 11.7474C31.0103 11.0805 30.6466 10.1765 30.648 9.23473C30.661 8.30069 31.0311 7.40942 31.6791 6.75271C32.3271 6.09599 33.201 5.72669 34.1122 5.72412ZM34.1066 10.2186C34.2276 10.2204 34.3475 10.1975 34.46 10.1515C34.5724 10.1056 34.675 10.0378 34.7617 9.9511C34.8484 9.86443 34.9176 9.76129 34.9652 9.64716C35.0129 9.53303 35.0383 9.41021 35.0396 9.28608C35.0419 9.03522 34.9487 8.79273 34.7799 8.61112C34.611 8.42951 34.3797 8.32267 34.1352 8.31298C34.0095 8.31164 33.8848 8.33608 33.7681 8.3842C33.6514 8.43233 33.5453 8.50347 33.4555 8.59373C33.3657 8.68398 33.2939 8.79146 33.2446 8.91009C33.1954 9.02872 33.1695 9.15632 33.1683 9.28525C33.1737 9.53591 33.2751 9.77404 33.4506 9.94861C33.6262 10.1232 33.862 10.2207 34.1066 10.2186Z" fill="white"/>
</svg>
