<svg width="28" height="29" viewBox="0 0 28 29" fill="none" xmlns="http://www.w3.org/2000/svg">
<path d="M14.2095 28.5002C11.4821 28.5002 8.81588 27.6915 6.54812 26.1762C4.28036 24.6609 2.51288 22.5072 1.46914 19.9874C0.425406 17.4676 0.152321 14.6949 0.684413 12.0199C1.2165 9.3449 2.52988 6.88775 4.45845 4.95918C6.38702 3.03061 8.84417 1.71724 11.5192 1.18514C14.1942 0.653053 16.9669 0.926138 19.4867 1.96987C22.0065 3.01361 24.1602 4.78109 25.6754 7.04885C27.1907 9.31661 27.9995 11.9828 27.9995 14.7102C27.9951 18.3662 26.5408 21.8712 23.9556 24.4564C21.3704 27.0415 17.8655 28.4958 14.2095 28.5002ZM14.2095 1.47342C11.592 1.47342 9.03334 2.24959 6.85703 3.70376C4.68071 5.15793 2.98448 7.22479 1.98283 9.64298C0.981186 12.0612 0.719102 14.7221 1.22974 17.2892C1.74037 19.8564 3.00079 22.2144 4.8516 24.0653C6.7024 25.9161 9.0605 27.1765 11.6276 27.6871C14.1948 28.1977 16.8557 27.9357 19.2739 26.934C21.6921 25.9324 23.759 24.2361 25.2131 22.0598C26.6673 19.8835 27.4434 17.3249 27.4434 14.7074C27.439 11.1989 26.0433 7.83536 23.5624 5.35447C21.0815 2.87357 17.718 1.47783 14.2095 1.47342Z" fill="#283618"/>
<path d="M14.5181 21.0444L18.8864 16.6761C18.9314 16.6392 18.9685 16.5937 18.9957 16.5423C19.0228 16.4908 19.0395 16.4345 19.0446 16.3766C19.0497 16.3186 19.0432 16.2603 19.0254 16.2049C19.0077 16.1495 18.979 16.0982 18.9412 16.054C18.9034 16.0098 18.8571 15.9737 18.8051 15.9476C18.7532 15.9215 18.6965 15.906 18.6384 15.9021C18.5804 15.8982 18.5222 15.906 18.4672 15.9249C18.4122 15.9438 18.3615 15.9734 18.3181 16.0122C18.3012 16.0271 18.2853 16.0431 18.2703 16.06L14.6449 19.6821V8.68286C14.647 8.62419 14.6373 8.56572 14.6162 8.5109C14.5952 8.45608 14.5633 8.40605 14.5226 8.36381C14.4818 8.32156 14.433 8.28796 14.3789 8.26501C14.3249 8.24206 14.2668 8.23022 14.2081 8.23022C14.1494 8.23022 14.0913 8.24206 14.0373 8.26501C13.9832 8.28796 13.9344 8.32156 13.8936 8.36381C13.8529 8.40605 13.821 8.45608 13.8 8.5109C13.7789 8.56572 13.7692 8.62419 13.7713 8.68286V19.681L10.1498 16.0589C10.0744 15.9709 9.96716 15.9165 9.85168 15.9076C9.73619 15.8987 9.62191 15.936 9.53394 16.0113C9.44597 16.0867 9.39156 16.1939 9.38264 16.3094C9.37373 16.4249 9.41107 16.5392 9.48643 16.6271C9.50089 16.6443 9.51667 16.6603 9.53367 16.675L13.902 21.0433C13.9838 21.1248 14.0946 21.1706 14.2101 21.1706C14.3255 21.1706 14.4363 21.1248 14.5181 21.0433" fill="#283618"/>
</svg>
