<svg width="130" height="130" viewBox="0 0 130 130" fill="none" xmlns="http://www.w3.org/2000/svg">
<path d="M111.726 45.7095C111.594 45.5296 111.421 45.3832 111.222 45.2823C111.022 45.1815 110.801 45.129 110.578 45.129H105.284L106.266 41.2145C106.318 41.0053 106.322 40.7869 106.277 40.576C106.232 40.3652 106.14 40.1672 106.007 39.9973C105.873 39.8274 105.703 39.69 105.509 39.5954C105.315 39.5008 105.101 39.4517 104.885 39.4516H94.9237C94.6062 39.4517 94.298 39.5576 94.0478 39.7526C93.7977 39.9475 93.6201 40.2203 93.5433 40.5275L92.3906 45.129H86.3851C86.0825 45.1293 85.7879 45.2258 85.544 45.4045C85.3001 45.5831 85.1197 45.8347 85.0289 46.1226L82.5684 53.8921L79.6525 51.5644C77.8858 50.1596 75.6945 49.3922 73.435 49.3871H67.6288C67.7954 48.9322 67.882 48.452 67.8849 47.9677V45.129H68.5965C69.2572 45.129 69.9049 44.9455 70.4669 44.5991C71.0289 44.2526 71.4831 43.7569 71.7786 43.1675C72.0741 42.5781 72.1992 41.9183 72.1398 41.262C72.0805 40.6057 71.8391 39.9788 71.4427 39.4516L67.8849 34.7195V32.3548H76.4235C77.5558 32.3548 78.6417 31.9062 79.4423 31.1077C80.243 30.3091 80.6928 29.2261 80.6928 28.0968C80.6928 26.9675 80.243 25.8844 79.4423 25.0859C78.6417 24.2873 77.5558 23.8387 76.4235 23.8387H71.8924C71.5991 23.0114 71.0567 22.2946 70.3393 21.7864C69.622 21.2783 68.7648 21.0036 67.8849 21H53.654C52.5217 21 51.4358 21.4486 50.6352 22.2472C49.8345 23.0457 49.3847 24.1288 49.3847 25.2581V49.3871H47.9616C45.3207 49.3905 42.7889 50.4383 40.9214 52.3009C39.054 54.1634 38.0034 56.6886 38 59.3226V76.3548C38.0021 77.9902 38.5694 79.5749 39.6063 80.8418C40.6432 82.1086 42.0863 82.9803 43.6924 83.3097V107.581C43.6924 107.957 43.8423 108.318 44.1092 108.584C44.3761 108.85 44.738 109 45.1155 109H73.5773C73.9547 109 74.3167 108.85 74.5836 108.584C74.8505 108.318 75.0004 107.957 75.0004 107.581V82.0323H80.6928C81.825 82.0323 82.9109 81.5836 83.7116 80.7851C84.5122 79.9866 84.962 78.9035 84.962 77.7742V74.9355H102.039C102.342 74.9352 102.636 74.8387 102.88 74.66C103.124 74.4814 103.305 74.2298 103.395 73.9419L111.934 46.9742C112.001 46.7619 112.017 46.5368 111.981 46.3172C111.945 46.0975 111.858 45.8893 111.726 45.7095ZM77.8466 28.0968C77.8466 28.4732 77.6966 28.8342 77.4298 29.1004C77.1629 29.3666 76.8009 29.5161 76.4235 29.5161H72.1542V26.6774H76.4235C76.8009 26.6774 77.1629 26.827 77.4298 27.0931C77.6966 27.3593 77.8466 27.7203 77.8466 28.0968ZM96.0351 42.2903H103.062L102.351 45.129H95.3236L96.0351 42.2903ZM75.5896 72.0968L70.3142 66.8352C70.2594 66.7806 70.216 66.7158 70.1863 66.6444C70.1567 66.5731 70.1414 66.4966 70.1414 66.4194C70.1414 66.3421 70.1567 66.2656 70.1863 66.1943C70.216 66.1229 70.2594 66.0581 70.3142 66.0035C70.3689 65.9489 70.4339 65.9055 70.5055 65.876C70.577 65.8464 70.6537 65.8312 70.7311 65.8312C70.8086 65.8312 70.8852 65.8464 70.9568 65.876C71.0283 65.9055 71.0933 65.9489 71.1481 66.0035L76.913 71.7533L76.8049 72.0968H75.5896ZM81.6491 56.7947L79.587 63.3095L74.5834 58.3191L72.5712 60.3261L78.6207 66.3597L77.8793 68.7031L73.1603 63.9965C72.5161 63.3539 71.6423 62.9929 70.7311 62.9929C69.82 62.9929 68.9462 63.3539 68.3019 63.9965C67.6576 64.6391 67.2957 65.5106 67.2957 66.4194C67.2957 67.3281 67.6576 68.1996 68.3019 68.8422L71.5651 72.0968H59.3464L74.2362 52.2939C75.5651 52.4414 76.8256 52.9588 77.8736 53.7871L81.6491 56.7947ZM67.1734 52.2258H70.7311L55.7887 72.0968H52.2309L67.1734 52.2258ZM63.6157 52.2258L59.5997 57.5683L54.2432 52.2258H63.6157ZM52.2309 25.2581C52.2309 24.8816 52.3809 24.5206 52.6477 24.2544C52.9146 23.9882 53.2766 23.8387 53.654 23.8387H67.8849C68.2624 23.8387 68.6243 23.9882 68.8912 24.2544C69.1581 24.5206 69.308 24.8816 69.308 25.2581V29.5161H52.2309V25.2581ZM52.2309 32.3548H65.0387V35.1935C65.0387 35.5007 65.1386 35.7995 65.3234 36.0452L69.1657 41.1548C69.2572 41.2782 69.307 41.4273 69.308 41.5806C69.308 41.7689 69.2331 41.9494 69.0996 42.0825C68.9662 42.2156 68.7852 42.2903 68.5965 42.2903H66.4618C66.0844 42.2903 65.7224 42.4399 65.4556 42.706C65.1887 42.9722 65.0387 43.3332 65.0387 43.7097V47.9677C65.0387 48.3442 64.8888 48.7052 64.6219 48.9714C64.3551 49.2376 63.9931 49.3871 63.6157 49.3871H52.2309V32.3548ZM50.2187 52.2258L57.8749 59.8619L55.9395 62.4338L46.0106 52.531C46.6433 52.3381 47.3001 52.2354 47.9616 52.2258H50.2187ZM40.8462 76.3548V59.3226C40.8498 58.2929 41.0793 57.2766 41.5187 56.3448C41.958 55.4131 42.5965 54.5885 43.3892 53.929L54.2147 64.7261L49.3847 71.1515V62.1613H46.5386V73.5161C46.5386 73.8926 46.6885 74.2536 46.9554 74.5198C47.2222 74.7859 47.5842 74.9355 47.9616 74.9355H72.1542V80.6129H45.1155C43.9832 80.6129 42.8973 80.1643 42.0966 79.3657C41.296 78.5672 40.8462 77.4841 40.8462 76.3548ZM60.7695 106.161V90.5484H57.9233V106.161H46.5386V83.4516H72.1542V106.161H60.7695ZM82.1159 77.7742C82.1159 78.1506 81.9659 78.5116 81.699 78.7778C81.4322 79.044 81.0702 79.1935 80.6928 79.1935H75.0004V74.9355H82.1159V77.7742ZM102.039 66.4194C101.662 66.4194 101.3 66.2698 101.033 66.0036C100.766 65.7375 100.616 65.3764 100.616 65V62.1613C100.616 61.7849 100.766 61.4238 101.033 61.1577C101.3 60.8915 101.662 60.7419 102.039 60.7419H104.592L102.795 66.4194H102.039ZM105.49 57.9032H102.039C100.907 57.9032 99.821 58.3518 99.0203 59.1504C98.2197 59.9489 97.7699 61.032 97.7699 62.1613V65C97.7729 66.1027 98.2048 67.1612 98.9745 67.9527C99.7443 68.7443 100.792 69.2071 101.897 69.2439L100.997 72.0968H79.7934L87.4325 47.9677H108.637L105.49 57.9032Z" fill="white"/>
<circle cx="65" cy="65" r="64.5" stroke="white"/>
</svg>
