<svg width="47" height="47" viewBox="0 0 47 47" fill="none" xmlns="http://www.w3.org/2000/svg">
<path fill-rule="evenodd" clip-rule="evenodd" d="M10.575 7.05H8.58925C8.319 6.80325 8.225 6.4155 8.225 5.8985C8.225 5.25225 7.71975 4.71175 7.0735 4.7C6.42725 4.7 5.88675 5.20525 5.875 5.8515C5.8515 7.238 6.298 8.18975 7.05 8.836V11.75C7.05 12.3962 7.57875 12.925 8.225 12.925H9.4V15.275H6.23925C5.969 15.0282 5.875 14.6405 5.875 14.1235C5.875 13.4773 5.36975 12.9367 4.7235 12.925C4.07725 12.925 3.53675 13.4302 3.525 14.0765C3.5015 15.463 3.948 16.4147 4.7 17.061V19.975C4.7 20.6212 5.22875 21.15 5.875 21.15H7.05V28.2H3.525C2.87875 28.2 2.35 28.7287 2.35 29.375V31.725H1.175C0.52875 31.725 0 32.2537 0 32.9C0 33.5462 0.52875 34.075 1.175 34.075H14.1V35.25H11.75C11.1037 35.25 10.575 35.7787 10.575 36.425V39.95H8.225C7.57875 39.95 7.05 40.4787 7.05 41.125V44.65H1.175C0.52875 44.65 0 45.1787 0 45.825C0 46.4712 0.52875 47 1.175 47H45.825C46.4712 47 47 46.4712 47 45.825C47 45.1787 46.4712 44.65 45.825 44.65H39.95V41.125C39.95 40.4787 39.4212 39.95 38.775 39.95H36.425V36.425C36.425 35.7787 35.8962 35.25 35.25 35.25H32.9V34.075H45.825C46.4712 34.075 47 33.5462 47 32.9C47 32.2537 46.4712 31.725 45.825 31.725H44.65V29.375C44.65 28.7287 44.1212 28.2 43.475 28.2H39.95V21.15H41.125C41.7712 21.15 42.3 20.6212 42.3 19.975V17.061C43.052 16.4147 43.4985 15.463 43.475 14.0765C43.475 13.4302 42.9345 12.9132 42.2765 12.925C41.6302 12.925 41.1132 13.4655 41.125 14.1235C41.125 14.6405 41.031 15.0282 40.7607 15.275H37.6V12.925H38.775C39.4212 12.925 39.95 12.3962 39.95 11.75V8.836C40.702 8.18975 41.1485 7.238 41.125 5.8515C41.125 5.20525 40.5845 4.68825 39.9265 4.7C39.2802 4.7 38.7632 5.2405 38.775 5.8985C38.775 6.4155 38.681 6.80325 38.4107 7.05H36.425V4.7C36.425 4.1595 36.0607 3.6895 35.532 3.56025C34.1572 3.2195 33.2877 2.2795 32.853 0.83425C32.7002 0.34075 32.242 0 31.725 0H29.375C28.7287 0 28.2 0.52875 28.2 1.175V31.725H18.8V1.175C18.8 0.52875 18.2712 0 17.625 0H15.275C14.758 0 14.2997 0.34075 14.147 0.83425C13.7005 2.2795 12.8427 3.2195 11.468 3.56025C10.9392 3.6895 10.575 4.1595 10.575 4.7V7.05ZM37.6 42.3H9.4V44.65H37.6V42.3ZM34.075 37.6H12.925V39.95H34.075V37.6ZM30.55 34.075H16.45V35.25H30.55V34.075ZM16.45 30.55V31.725H4.7V30.55H16.45ZM30.55 30.55H42.3V31.725H30.55V30.55ZM37.6 28.2V21.15H30.55V28.2H37.6ZM16.45 21.15H9.4V28.2H16.45V21.15ZM11.75 23.5V25.85C11.75 26.4962 12.2787 27.025 12.925 27.025C13.5712 27.025 14.1 26.4962 14.1 25.85V23.5C14.1 22.8537 13.5712 22.325 12.925 22.325C12.2787 22.325 11.75 22.8537 11.75 23.5ZM32.9 23.5V25.85C32.9 26.4962 33.4287 27.025 34.075 27.025C34.7212 27.025 35.25 26.4962 35.25 25.85V23.5C35.25 22.8537 34.7212 22.325 34.075 22.325C33.4287 22.325 32.9 22.8537 32.9 23.5ZM16.45 18.8H7.05V17.625H16.45V18.8ZM30.55 17.625H39.95V18.8H30.55V17.625ZM35.25 15.275V12.925H30.55V15.275H35.25ZM16.45 12.925H11.75V15.275H16.45V12.925ZM30.55 9.4H37.6V10.575H30.55V9.4ZM16.45 9.4V10.575H9.4V9.4H16.45ZM30.55 7.05H34.075V5.55775C32.6062 4.97025 31.5605 3.901 30.9025 2.35H30.55V7.05ZM16.45 7.05V2.35H16.0975C15.4395 3.901 14.382 4.97025 12.925 5.55775V7.05H16.45Z" fill="#FEFAE0"/>
</svg>
