<svg width="130" height="130" viewBox="0 0 130 130" fill="none" xmlns="http://www.w3.org/2000/svg">
<circle cx="65" cy="65" r="64.5" stroke="white"/>
<path d="M69.5312 56.6915C69.5312 57.3694 69.5993 58.0477 69.7333 58.7076C70.3252 61.6234 72.1681 64.042 74.6346 65.4466L69.5312 56.6915ZM69.5312 56.6915C69.5312 51.1374 74.0507 46.6182 79.6046 46.6182C85.1586 46.6182 89.678 51.1374 89.678 56.6915C89.678 57.8283 89.4877 58.9479 89.1127 60.02C87.7001 64.0541 83.8789 66.7649 79.6046 66.7649C77.8157 66.7649 76.1138 66.2888 74.6346 65.4466L69.5312 56.6915Z" stroke="white"/>
<path d="M61.5608 50.8361L61.5607 50.8361C60.1483 54.8703 56.3272 57.5811 52.0529 57.5811C47.2811 57.5811 43.1289 54.1909 42.1815 49.5237C42.0476 48.8638 41.9795 48.1855 41.9795 47.5077C41.9795 41.9537 46.4987 37.4343 52.0529 37.4343C57.607 37.4343 62.1262 41.9536 62.1262 47.5077C62.1262 48.6447 61.9362 49.7642 61.5608 50.8361Z" stroke="white"/>
<path d="M63.9898 32.8262L63.9899 32.8263C64.8461 33.7343 65.9025 34.6585 67.0468 35.6589L67.049 35.6608L67.049 35.6608L67.062 35.6723C67.0623 35.6726 67.0627 35.6729 67.0631 35.6732C67.8049 36.3216 68.57 36.9906 69.3502 37.7132C70.1306 36.9904 70.8961 36.3214 71.6381 35.673L71.6385 35.6726L71.6398 35.6714L71.6531 35.6597L71.6545 35.6585C72.7994 34.6584 73.8564 33.7342 74.7136 32.8259C75.602 31.8844 76.154 31.0883 76.4839 30.3136L76.484 30.3134C76.744 29.7037 76.8687 29.0976 76.8687 28.4528C76.8687 28.3438 76.8618 28.231 76.8468 28.1066C76.6691 26.6331 75.374 25.5 73.8099 25.5C72.9291 25.5 72.3141 25.6564 71.815 25.9875C71.3086 26.3235 70.8633 26.8775 70.3983 27.7861C70.1581 28.2561 69.6746 28.5522 69.1464 28.5522C68.619 28.5522 68.135 28.2567 67.8947 27.7863L63.9898 32.8262ZM63.9898 32.8262C63.1022 31.885 62.5508 31.089 62.221 30.314L63.9898 32.8262ZM66.5679 25.9097C66.1769 25.6197 65.7043 25.5 64.8905 25.5C63.3298 25.5 62.0367 26.6321 61.8588 28.1064L66.5679 25.9097ZM66.5679 25.9097C66.9832 26.2178 67.3719 26.7643 67.8945 27.786L66.5679 25.9097ZM61.8369 28.4528C61.8369 28.344 61.8438 28.231 61.8588 28.1066L62.221 30.314C61.9614 29.7039 61.8369 29.0975 61.8369 28.4528Z" stroke="white"/>
<path d="M96.9372 70.9296C96.422 67.3029 94.3917 64.0822 91.3246 62.0476C91.3108 62.0769 91.2966 62.1064 91.2839 62.133C91.2729 62.1558 91.263 62.1764 91.2551 62.1931L91.2551 62.1933C91.2489 62.2064 91.2423 62.2205 91.2354 62.2353C91.2134 62.2824 91.1882 62.3366 91.1627 62.388M96.9372 70.9296L90.4951 62.591C90.5154 62.5532 90.5351 62.5151 90.5548 62.4769C90.566 62.4551 90.5773 62.4333 90.5887 62.4115C90.599 62.3915 90.6094 62.3715 90.6198 62.3515C90.6408 62.3113 90.6618 62.271 90.6824 62.2305C90.8255 62.3185 90.9664 62.409 91.105 62.5021M96.9372 70.9296C96.9221 70.9153 96.907 70.901 96.8919 70.8867L96.8909 70.8859C96.8821 70.8776 96.8725 70.8686 96.8625 70.8591C96.8408 70.8387 96.8171 70.8164 96.7947 70.7956L96.7945 70.7954C96.6461 70.6581 96.4948 70.523 96.3401 70.3909M96.9372 70.9296L96.3401 70.3909M91.1627 62.388C91.1439 62.4262 91.1243 62.4647 91.105 62.5021M91.1627 62.388C91.1628 62.3876 91.163 62.3872 91.1632 62.3868L90.7143 62.1666L91.1621 62.3891C91.1623 62.3887 91.1625 62.3883 91.1627 62.388ZM91.105 62.5021C93.8493 64.3443 95.719 67.1776 96.3401 70.3909M91.105 62.5021C91.0901 62.5311 91.0753 62.5595 91.0612 62.5866C91.0513 62.6056 91.0417 62.6239 91.0327 62.6414L91.0318 62.6431C91.0231 62.6597 91.0132 62.6789 91.0026 62.6995C90.9814 62.7405 90.9576 62.7868 90.9355 62.8278L90.9341 62.8304L90.9341 62.8304C90.896 62.9002 90.8562 62.9698 90.8194 63.034C90.8105 63.0497 90.8017 63.0651 90.7931 63.0801L90.793 63.0803C90.7852 63.094 90.7763 63.1097 90.7669 63.1264C90.7434 63.168 90.7161 63.2165 90.6899 63.2603M96.3401 70.3909L90.6903 63.2597C90.6902 63.2599 90.69 63.2601 90.6899 63.2603M96.3401 70.3909C96.3253 70.3782 96.3104 70.3655 96.2955 70.3529M96.3401 70.3909L93.1634 68.3063C93.3602 68.4026 93.5551 68.5032 93.7477 68.608C93.7701 68.6203 93.7964 68.6349 93.8191 68.6475C93.831 68.6542 93.8419 68.6602 93.8507 68.6651L93.8518 68.6657C94.0367 68.7684 94.2215 68.875 94.4044 68.9867L94.4088 68.9894L94.4088 68.9894C94.418 68.9951 94.4185 68.9954 94.4194 68.9958C94.4206 68.9964 94.4225 68.9973 94.4469 69.0122L94.4484 69.0131C94.6398 69.131 94.8272 69.2536 95.0104 69.3778L95.0113 69.3784L95.1205 69.4532L95.122 69.4542C95.3032 69.5796 95.483 69.709 95.6604 69.8434C95.6766 69.8556 95.6916 69.8675 95.7022 69.8759C95.7146 69.8857 95.7218 69.8914 95.7288 69.8967L95.7305 69.898C95.8966 70.0255 96.0603 70.1565 96.2213 70.2913L96.2231 70.2929C96.2315 70.3 96.2403 70.3072 96.2531 70.3176C96.2646 70.3271 96.2798 70.3395 96.2955 70.3529M96.3401 70.3909C96.3888 70.6429 96.4299 70.8973 96.4631 71.1537C96.4631 71.1537 96.4631 71.1537 96.4631 71.1537C96.4639 71.1599 96.4647 71.166 96.4654 71.1722L96.3401 70.3909ZM90.6899 63.2603C90.6467 63.3333 90.6017 63.4053 90.5605 63.4712C90.5528 63.4835 90.5452 63.4956 90.5378 63.5074L90.6899 63.2603ZM96.2955 70.3529C96.2953 70.3528 96.2952 70.3526 96.295 70.3525L95.9718 70.734L96.2959 70.3533C96.2958 70.3531 96.2956 70.353 96.2955 70.3529ZM89.2475 65.2369L89.2465 65.238C89.1384 65.3599 89.028 65.4796 88.9154 65.5971L88.9145 65.5981C88.8969 65.6163 88.8798 65.6332 88.8669 65.6461L88.8668 65.6461C88.8526 65.6602 88.8429 65.6698 88.8338 65.6792L88.8336 65.6794C88.7505 65.7648 88.6633 65.8538 88.5723 65.9416C88.5448 65.9682 88.5065 66.0037 88.4771 66.031C88.4625 66.0444 88.4501 66.0559 88.4422 66.0633L88.4414 66.0641C88.4289 66.0759 88.416 66.088 88.4028 66.1005C88.3451 66.1549 88.2823 66.2141 88.2187 66.2712M89.2475 65.2369L87.8841 65.8997M89.2475 65.2369C89.2574 65.2257 89.2665 65.215 89.273 65.2073L89.2883 65.1894L89.2475 65.2369ZM88.2187 66.2712C88.2185 66.2714 88.2184 66.2715 88.2182 66.2716L87.8841 65.8997M88.2187 66.2712C88.2188 66.2711 88.219 66.271 88.2191 66.2708L87.8841 65.8997M88.2187 66.2712C88.1824 66.304 88.1401 66.3402 88.1053 66.37C88.0903 66.3828 88.0767 66.3944 88.0656 66.4041L87.7379 66.0266L88.0659 66.4038C88.0514 66.4164 88.0363 66.4296 88.0208 66.4431C87.9679 66.4894 87.91 66.54 87.8521 66.5883L87.8506 66.5896L87.8506 66.5896C87.816 66.6183 87.7739 66.6518 87.7378 66.6805C87.7185 66.6959 87.701 66.7099 87.6872 66.721L87.6858 66.7221C87.6712 66.7338 87.656 66.7461 87.6403 66.7588C87.622 66.7735 87.603 66.7889 87.5836 66.8044M87.8841 65.8997C87.8525 65.9282 87.8202 65.9558 87.788 65.9834C87.7712 65.9977 87.7544 66.0121 87.7378 66.0265C87.7215 66.0407 87.7053 66.0548 87.6891 66.069C87.6369 66.1146 87.5847 66.1601 87.5315 66.2047C87.4995 66.2312 87.467 66.257 87.4346 66.2828C87.414 66.2992 87.3933 66.3156 87.3728 66.3323C87.3562 66.3455 87.3397 66.3589 87.3232 66.3722C87.2717 66.4137 87.2202 66.4553 87.1678 66.4956M87.5836 66.8044C87.5216 66.8001 87.4596 66.7961 87.3977 66.7924L87.1678 66.4956M87.5836 66.8044C87.5478 66.8332 87.5105 66.8628 87.4734 66.8913M87.5836 66.8044C87.7203 66.8141 87.8571 66.8255 87.9938 66.839L87.9946 66.8391C88.0162 66.8413 88.0374 66.8436 88.0559 66.8457L88.0575 66.8459C88.0772 66.848 88.094 66.8499 88.1104 66.8515L88.114 66.8519L88.114 66.8519C88.3233 66.8743 88.5324 66.9006 88.7407 66.9315L88.7484 66.9326L88.7484 66.9327L88.7696 66.9356L88.7715 66.9359C88.782 66.9373 88.7991 66.9396 88.8173 66.9425M87.1678 66.4956C87.1256 66.5283 87.0827 66.5598 87.0399 66.5913C87.0266 66.6011 87.0134 66.6109 87.0001 66.6207L87.1678 66.4956ZM87.1646 67.2812C87.2096 67.2831 87.2545 67.2853 87.2992 67.2876L87.3961 66.7923L87.4727 66.8919C87.4729 66.8917 87.4732 66.8915 87.4734 66.8913M87.1646 67.2812L87.172 67.1162C87.2068 67.0905 87.2407 67.0651 87.2731 67.0409C87.2817 67.0345 87.2901 67.0281 87.2985 67.0219C87.3034 67.0182 87.3085 67.0145 87.3137 67.0107C87.3139 67.0105 87.3142 67.0103 87.3145 67.0101C87.3205 67.0057 87.3266 67.0011 87.3329 66.9965C87.3764 66.9645 87.426 66.928 87.4734 66.8913M87.1646 67.2812C87.0932 67.278 87.0217 67.2751 86.9501 67.2727L86.9512 67.2719C86.9929 67.2436 87.0412 67.2107 87.0843 67.1799L86.7936 66.7732L87.0838 67.1803C87.1136 67.1591 87.143 67.1376 87.1718 67.1164L87.1646 67.2812ZM87.4734 66.8913L88.6675 67.4261C88.6795 67.428 88.6915 67.4297 88.7036 67.4313C88.7155 67.4329 88.7274 67.4345 88.7393 67.4364M88.8173 66.9425C88.8166 66.9424 88.8159 66.9423 88.8152 66.9422L88.7393 67.4364M88.8173 66.9425C88.8181 66.9426 88.8188 66.9427 88.8195 66.9429L88.7393 67.4364M88.8173 66.9425C89.0396 66.9767 89.2589 67.0167 89.4753 67.0601L89.4763 67.0603C89.4845 67.062 89.4931 67.0637 89.5019 67.0655C89.5374 67.0726 89.5772 67.0807 89.6161 67.0891M88.7393 67.4364C88.9532 67.4693 89.1656 67.508 89.377 67.5504C89.3863 67.5522 89.3957 67.5541 89.405 67.556C89.4408 67.5632 89.4767 67.5705 89.5122 67.5782M89.6161 67.0891C89.6154 67.0889 89.6147 67.0888 89.614 67.0886L89.5122 67.5782M89.6161 67.0891C89.6169 67.0893 89.6176 67.0894 89.6184 67.0896L89.5122 67.5782M89.6161 67.0891C89.8322 67.1341 90.0482 67.1834 90.2633 67.2385L90.1394 67.7229L90.2598 67.2376C90.2806 67.2428 90.3175 67.2528 90.3356 67.2577C90.3409 67.2592 90.3445 67.2602 90.3458 67.2605L90.2188 67.7441M89.5122 67.5782C89.7226 67.6219 89.9319 67.6698 90.1394 67.7229C90.1555 67.7269 90.1714 67.7312 90.1873 67.7356C90.1978 67.7384 90.2082 67.7413 90.2188 67.7441M90.2188 67.7441L90.3456 67.2604C90.5468 67.3132 90.7463 67.3701 90.9442 67.4307L90.9444 67.4308C90.9495 67.4324 90.9592 67.4353 90.9711 67.4388C90.9955 67.4461 91.029 67.4561 91.0502 67.4628M90.2188 67.7441L91.0502 67.4628M90.9001 67.9397C90.8803 67.9335 90.8605 67.9276 90.8405 67.9217C90.8263 67.9174 90.812 67.9132 90.7978 67.9088L91.6267 68.1898C91.6158 68.1858 91.6049 68.1818 91.594 68.1777C91.5639 68.1666 91.5339 68.1554 91.5036 68.1445M90.9001 67.9397C91.1029 68.0033 91.304 68.072 91.5036 68.1445M90.9001 67.9397L91.0508 67.463C91.0506 67.4629 91.0504 67.4629 91.0502 67.4628M90.9001 67.9397L91.0496 67.4626C91.0498 67.4627 91.05 67.4627 91.0502 67.4628M91.5036 68.1445L91.6744 67.6746C91.6741 67.6745 91.6737 67.6744 91.6734 67.6743C91.673 67.6741 91.6727 67.674 91.6723 67.6739L91.5036 68.1445ZM90.1551 64.0888C90.1553 64.0884 90.1556 64.0881 90.1558 64.0878L89.7461 63.8011L90.1544 64.0898C90.1546 64.0895 90.1549 64.0891 90.1551 64.0888Z" stroke="white"/>
<path d="M69.4667 63.7978C69.4542 63.7801 69.4416 63.7624 69.429 63.7447C69.4017 63.7064 69.3744 63.6681 69.3479 63.6292C69.2713 63.5164 69.1978 63.4017 69.1246 63.2861C69.1127 63.2671 69.1004 63.2483 69.0881 63.2294C69.073 63.2062 69.0578 63.183 69.0433 63.1595C68.9449 62.9996 68.8498 62.8374 68.7586 62.6727L68.4974 62.1731M69.4667 63.7978L69.0577 64.0854M69.4667 63.7978L69.0583 64.0862C69.0581 64.0859 69.0579 64.0857 69.0577 64.0854M69.4667 63.7978C69.5344 63.8941 69.6029 63.99 69.6731 64.0839M69.0577 64.0854C69.048 64.0716 69.0371 64.0563 69.0255 64.0401C68.9969 63.9999 68.9642 63.9541 68.9347 63.9108L68.9343 63.9102C68.853 63.7904 68.7759 63.6701 68.7022 63.5536L68.7013 63.5522C68.7009 63.5516 68.6977 63.5466 68.6928 63.539C68.6742 63.5103 68.6308 63.4431 68.6177 63.4219L68.6175 63.4216C68.5154 63.2557 68.4164 63.0868 68.3212 62.9149L68.3203 62.9133C68.31 62.8946 68.3007 62.8766 68.294 62.8638C68.2866 62.8494 68.2821 62.8407 68.2777 62.8326L68.7174 62.5945L68.2784 62.8339C68.2004 62.6908 68.1231 62.5444 68.0491 62.3945M69.0577 64.0854C69.1265 64.1833 69.198 64.2835 69.2723 64.3829C69.2722 64.3828 69.2721 64.3826 69.272 64.3825L69.6731 64.0839M68.0491 62.3945C68.0493 62.395 68.0496 62.3955 68.0499 62.396L68.4974 62.1731M68.0491 62.3945L68.4974 62.1731M68.0491 62.3945C68.0305 62.357 68.0066 62.3059 67.9879 62.2658C67.9784 62.2454 67.9702 62.2279 67.9647 62.2164L67.964 62.215C67.9104 62.1024 67.8542 61.9834 67.8005 61.8612M68.4974 62.1731C68.4804 62.1389 68.4643 62.1043 68.4482 62.0696C68.4374 62.0464 68.4266 62.0232 68.4155 62.0001C68.3618 61.8873 68.3084 61.7742 68.258 61.6594M67.8005 61.8612C67.8006 61.8613 67.8006 61.8614 67.8006 61.8615L68.258 61.6594M67.8005 61.8612C67.8004 61.861 67.8003 61.8607 67.8002 61.8604L68.258 61.6594M67.8005 61.8612C67.7758 61.8053 67.7516 61.7468 67.7303 61.6952C67.7237 61.6791 67.7173 61.6638 67.7113 61.6494M68.258 61.6594C68.2359 61.6094 68.215 61.5589 68.1941 61.5083C68.187 61.4912 68.1799 61.4741 68.1728 61.4569M68.1728 61.4569L67.7113 61.6494M68.1728 61.4569C68.1279 61.3492 68.0833 61.2412 68.0415 61.1319L67.961 60.9149L67.4908 61.085C67.5171 61.1576 67.545 61.2342 67.5748 61.3114C67.6194 61.4278 67.6663 61.5414 67.7113 61.6494M68.1728 61.4569L67.7113 61.6492C67.7113 61.6493 67.7113 61.6493 67.7113 61.6494M70.7706 65.3592L70.4138 65.7095C70.4211 65.7169 70.4284 65.7243 70.4358 65.7319C70.4806 65.7776 70.5292 65.8272 70.5788 65.8759L70.5794 65.8764C70.6673 65.9625 70.756 66.0454 70.8422 66.1251L70.1667 64.7007L69.7856 65.0243C69.7857 65.0244 69.7857 65.0244 69.7858 65.0245C69.8604 65.1124 69.936 65.1985 70.0119 65.2831L70.012 65.2832C70.0638 65.3408 70.118 65.4007 70.1742 65.4607M70.7706 65.3592L70.4145 65.7101C70.3354 65.6299 70.2546 65.5469 70.1742 65.4607M70.7706 65.3592C70.6928 65.2803 70.6156 65.2009 70.5398 65.1196M70.7706 65.3592L70.7933 65.3823C70.8382 65.4281 70.8832 65.474 70.9291 65.5191C71.0122 65.6004 71.097 65.6797 71.1822 65.7585L70.5398 65.1196M70.1742 65.4607L70.5398 65.1196M70.1742 65.4607C70.1745 65.461 70.1747 65.4613 70.175 65.4616L70.5398 65.1196M69.6731 64.0839L69.2726 64.3833L69.81 64.2619C69.7973 64.2454 69.7845 64.229 69.7717 64.2125C69.7386 64.1699 69.7054 64.1273 69.6731 64.0839ZM69.632 64.8412C69.6322 64.8414 69.6323 64.8416 69.6325 64.8418L70.0187 64.5243L69.632 64.8412ZM30.5 103.5V72.7632C30.5 65.9432 36.0494 60.3938 42.8694 60.3938H67.2616C67.2735 60.4338 67.2857 60.4738 67.2981 60.5138L67.2984 60.5148C67.3224 60.5917 67.3473 60.6695 67.3735 60.7478C67.3733 60.7475 67.3732 60.7472 67.3731 60.7469L30.5 103.5Z" stroke="white"/>
<path d="M86.4926 69.5774C90.6448 69.5774 94.4979 71.6457 96.8012 75.1117C98.1494 77.1404 98.8619 79.5033 98.8617 81.9467V103.5H92.4909V84.2429C92.4909 83.4662 91.8613 82.8366 91.0846 82.8366C90.3078 82.8366 89.6782 83.4662 89.6782 84.2429V103.5H67.2355V84.2429C67.2355 83.4662 66.6059 82.8366 65.8292 82.8366C65.0524 82.8366 64.4228 83.4662 64.4228 84.2429V103.5H58.9414H58.0518V81.9467C58.0518 75.1268 63.601 69.5774 70.4211 69.5774H79.6048H86.4926Z" stroke="white"/>
</svg>
