<svg width="130" height="130" viewBox="0 0 130 130" fill="none" xmlns="http://www.w3.org/2000/svg">
<path d="M108.99 66.1C108.99 64.27 107.81 62.68 106.06 62.14L103.12 61.24C108.03 58.34 107.52 55.3 107.29 53.03C107.11 51.27 106.85 46.06 106.85 45.98C106.09 37.96 103.63 32.31 99.56 29.19C96.38 26.76 93.15 26.6 91.75 26.67C90.35 26.6 87.11 26.75 83.92 29.19C79.85 32.31 77.39 37.96 76.63 46.01C76.63 46.06 76.37 51.27 76.19 53.02C75.97 55.19 75.5 58.12 80.25 61.13L79.59 61.35L65.11 56.62V53C67.69 51.14 69.46 48.23 69.77 44.86C71.38 44.69 72.64 43.34 72.64 41.69C72.64 40.34 71.8 39.18 70.61 38.71L70.63 37.59C70.68 34.24 69.42 31.09 67.07 28.7C64.72 26.31 61.59 25 58.24 25C51.41 25 45.85 30.56 45.85 37.39V38.94V38.95C44.92 39.51 44.29 40.52 44.29 41.69C44.29 43.35 45.56 44.7 47.17 44.86C47.49 48.22 49.25 51.14 51.83 53V56.59L45.02 58.8V56.12C45.02 53.75 43.71 52.83 43.11 52.54C42.62 50.66 40.77 50.12 39.81 50.1H32.14C26 50.1 25.72 54.61 25.63 56.09C25.55 57.42 25.62 61.26 25.63 61.45C24.9 61.91 24.42 62.71 24.42 63.63C24.42 64.94 25.4 66.01 26.66 66.19C26.93 68.77 28.29 71 30.26 72.45V75.09L23.45 77.18C21.98 77.63 21 78.96 21 80.5V89.52C21 89.8 21.22 90.02 21.5 90.02H22.02L22 99.65C22 99.93 22.22 100.15 22.5 100.15C22.78 100.15 23 99.93 23 99.65L23.02 90.02H26.6V99.65C26.6 99.93 26.82 100.15 27.1 100.15C27.38 100.15 27.6 99.93 27.6 99.65V85.22C27.6 85.13 27.57 85.04 27.53 84.96L25.69 81.96C25.54 81.72 25.24 81.65 25 81.8C24.76 81.94 24.69 82.25 24.84 82.49L26.61 85.37V89.03H22.01V80.51C22.01 79.42 22.71 78.47 23.76 78.15L30.34 76.13C30.67 78.71 32.85 80.72 35.52 80.72C38.19 80.72 40.38 78.71 40.7 76.13L47.24 78.15C48.28 78.47 48.99 79.42 48.99 80.51V89.03H44.39V85.37L46.16 82.49C46.3 82.25 46.23 81.95 46 81.8C45.76 81.66 45.46 81.73 45.31 81.96L43.47 84.96C43.42 85.04 43.4 85.13 43.4 85.22V99.65C43.4 99.93 43.62 100.15 43.9 100.15C44.18 100.15 44.4 99.93 44.4 99.65V90.02H48.02L48 99.65C48 99.93 48.22 100.15 48.5 100.15C48.78 100.15 49 99.93 49 99.65L49.02 90.02H49.5C49.78 90.02 50 89.8 50 89.52V80.5C50 78.97 49.01 77.63 47.55 77.18L40.78 75.09V72.45C42.76 71.01 44.11 68.77 44.38 66.19C45.64 66.01 46.61 64.94 46.61 63.63C46.61 62.56 45.96 61.64 45.04 61.24V59.83C46.18 59.47 51.65 57.71 51.65 57.71L50.23 63.07C50.19 63.22 50.22 63.38 50.32 63.51C50.41 63.63 50.56 63.7 50.71 63.7C50.71 63.7 50.71 63.7 50.72 63.7L58 63.61V96.2C58 96.48 58.22 96.7 58.5 96.7C58.78 96.7 59 96.48 59 96.2V63.6L66.66 63.7C66.66 63.7 66.66 63.7 66.67 63.7C66.83 63.7 66.98 63.62 67.07 63.5C67.17 63.37 67.19 63.2 67.14 63.05L65.42 57.77L78 61.88L77.44 62.06C75.64 62.65 73.56 63.67 73.56 66.36V67.79C72.32 67.85 70.31 68.16 68.33 69.68C65.26 72.03 63.42 76.27 62.84 82.32C62.84 82.36 62.64 86.23 62.51 87.53C62.35 89.15 61.99 91.32 65.36 93.56L63.51 94.17C61.76 94.74 60.59 96.36 60.59 98.2V104.24C60.59 104.52 60.81 104.74 61.09 104.74C61.37 104.74 61.59 104.52 61.59 104.24V98.2C61.59 96.79 62.49 95.56 63.82 95.12L69.45 93.28L73.42 97.25V104.24C73.42 104.52 73.64 104.74 73.92 104.74C74.2 104.74 74.42 104.52 74.42 104.24V97.25L78.4 93.27L84.66 95.19C85.6 95.48 86.23 96.33 86.23 97.33L86.27 104.24C86.27 104.52 86.49 104.74 86.77 104.74C87.05 104.74 87.27 104.52 87.27 104.24V98.02L87.23 97.3C87.23 95.88 86.32 94.64 84.96 94.23L83.03 93.64C86.5 91.48 86.2 89.23 85.97 87.54L85.93 87.23C85.77 86.04 85.65 82.35 85.64 82.29C85.07 76.27 83.22 72.03 80.15 69.68C77.96 68 75.75 67.8 74.57 67.78V66.36C74.57 64.72 75.49 63.75 77.76 63.01L85.4 60.51L90.84 65.95L90.85 96.23C90.85 96.51 91.07 96.73 91.35 96.73C91.63 96.73 91.85 96.51 91.85 96.23L91.82 65.96L97.28 60.5L105.77 63.1C107.1 63.51 107.99 64.71 107.99 66.13L108.05 67.11L107.95 96.21C107.95 96.48 108.18 96.71 108.45 96.71C108.73 96.71 108.95 96.48 108.95 96.21L109.04 67.09L108.99 66.1ZM39.76 75.46C39.76 77.8 37.85 79.71 35.51 79.71C33.17 79.71 31.26 77.8 31.26 75.46V73.08C32.53 73.77 33.97 74.16 35.51 74.16C37.05 74.16 38.49 73.76 39.76 73.08V75.46ZM45.59 63.63C45.59 64.51 44.87 65.18 43.99 65.23C43.56 65.25 43.42 65.42 43.4 65.7C43.17 69.89 39.7 73.17 35.5 73.17C31.3 73.17 27.83 69.89 27.6 65.7C27.58 65.42 27.42 65.21 27 65.23C26.12 65.27 25.4 64.51 25.4 63.63C25.4 62.75 26.12 62.12 27 62.03C27.66 61.96 28.76 62.11 29.05 62.14C29.27 62.16 29.46 62 29.53 61.79L30.28 59.41C36.52 59.48 41.1 57.33 41.3 57.23C41.55 57.11 41.65 56.81 41.53 56.56C41.41 56.31 41.11 56.21 40.86 56.33C40.81 56.35 36.12 58.58 29.93 58.4C29.69 58.41 29.51 58.54 29.44 58.75L28.7 61.11L26.61 60.96C26.59 59.88 26.55 57.16 26.62 56.14C26.77 53.79 27.52 51.08 32.13 51.08H39.79C39.87 51.08 41.85 51.16 42.18 52.97C42.21 53.15 42.35 53.3 42.52 53.36C42.58 53.38 44.01 53.88 44.01 56.11V61.03C44 61.03 44 61.03 43.99 61.03H42.22C41.94 61.03 41.72 61.25 41.72 61.53C41.72 61.81 41.94 62.03 42.22 62.03H44C44.88 62.04 45.59 62.75 45.59 63.63ZM48.13 44.36C48.12 44.08 47.93 43.88 47.51 43.89C46.29 43.92 45.3 42.9 45.3 41.68C45.3 40.46 46.29 39.47 47.51 39.47C47.79 39.47 48.01 39.25 48.01 38.97C48.01 38.69 47.79 38.47 47.51 38.47C47.29 38.47 47.07 38.49 46.87 38.54V37.38C46.87 31.1 51.98 25.99 58.26 25.99C61.34 25.99 64.22 27.2 66.38 29.39C68.54 31.58 69.7 34.49 69.65 37.56L69.64 38.48C69.58 38.48 69.52 38.46 69.46 38.46H68.88C68.6 38.46 68.38 38.68 68.38 38.96C68.38 39.24 68.6 39.46 68.88 39.46H69.46C70.68 39.46 71.67 40.45 71.67 41.67C71.67 42.89 70.68 43.87 69.46 43.88C69.03 43.88 68.86 44.07 68.84 44.35C68.54 49.84 64 54.14 58.49 54.14C52.97 54.15 48.43 49.85 48.13 44.36ZM51.34 62.69L52.6 57.93L57.28 62.61L51.34 62.69ZM58.47 62.39L52.84 56.76V53.65C54.5 54.6 56.43 55.16 58.47 55.16C60.52 55.16 62.44 54.61 64.1 53.65V56.76V56.77L58.47 62.39ZM65.95 62.69L59.67 62.61L64.38 57.9L65.95 62.69ZM77.74 92.5L73.9 96.34L70.06 92.5V90.61C71.21 91.22 72.52 91.57 73.9 91.57C75.29 91.57 76.59 91.22 77.74 90.61V92.5ZM73.9 90.57C70.08 90.57 66.93 87.59 66.73 83.81V80.93C68.79 80.05 69.86 78.21 70.31 77.17C71.54 78.22 74.81 80.35 81.13 80.4L81.08 83.78C80.87 87.59 77.72 90.57 73.9 90.57ZM79.54 70.49C82.37 72.67 84.08 76.67 84.62 82.36C84.63 82.51 84.75 86.13 84.91 87.37L84.95 87.69C85.18 89.37 85.44 91.27 81.69 93.25L78.73 92.34V89.98C80.64 88.58 81.93 86.36 82.06 83.82C82.06 83.82 82.1 81.09 82.12 79.91C82.12 79.73 82.09 79.4 81.62 79.4C73.46 79.4 70.51 75.99 70.48 75.96C70.36 75.82 70.17 75.75 69.99 75.79C69.81 75.83 69.66 75.97 69.61 76.14C69.6 76.17 68.79 79.39 66.05 80.13C65.8 80.2 65.72 80.41 65.72 80.6C65.72 81.45 65.72 83.83 65.72 83.83C65.86 86.36 67.14 88.57 69.05 89.97V92.35L66.55 93.17C63.09 91.14 63.31 89.35 63.48 87.67C63.61 86.35 63.81 82.51 63.81 82.38C64.35 76.66 66.06 72.66 68.89 70.48C70.65 69.13 72.47 68.87 73.56 68.77C73.91 68.74 74.52 68.77 74.85 68.77C75.96 68.8 77.78 69.14 79.54 70.49ZM96.64 59.73L91.32 65.05L86 59.73V56.83C87.58 57.72 89.39 58.24 91.32 58.24C93.25 58.24 95.07 57.72 96.64 56.83V59.73ZM91.32 57.24C86.11 57.24 81.81 53.17 81.53 48V44.03C84.47 42.82 85.89 40.15 86.44 38.81C87.92 40.14 92.31 43.21 101.19 43.25L101.12 47.97C100.83 53.17 96.53 57.24 91.32 57.24ZM97.64 59.56V56.18C100.2 54.33 101.93 51.39 102.11 48C102.11 48 101.98 44.14 102.19 42.76C102.21 42.61 102.03 42.24 101.69 42.25C90.72 42.53 86.65 37.63 86.61 37.58C86.49 37.44 86.3 37.37 86.12 37.41C85.94 37.45 85.79 37.58 85.74 37.76C85.73 37.8 84.55 41.96 80.86 43.23C80.61 43.32 80.53 43.53 80.53 43.7C80.53 44.78 80.53 48.02 80.53 48.02C80.71 51.39 82.44 54.33 85 56.18V59.58L81.44 60.74C81.4 60.68 81.35 60.63 81.28 60.59C76.54 57.8 76.97 55.34 77.19 53.15C77.37 51.38 77.63 46.24 77.64 46.07C78.37 38.35 80.69 32.94 84.52 29.99C86.93 28.14 89.41 27.72 90.91 27.66C91 27.7 91.1 27.73 91.21 27.71C91.22 27.71 91.41 27.68 91.74 27.66C92.09 27.68 92.3 27.71 92.31 27.71C92.42 27.73 92.52 27.7 92.61 27.66C94.1 27.72 96.56 28.13 98.97 29.97C102.81 32.91 105.14 38.33 105.87 46.03C105.88 46.24 106.14 51.38 106.32 53.15C106.56 55.48 107 58.1 101.8 60.81L97.64 59.56Z" fill="white"/>
<circle cx="65" cy="65" r="64.5" stroke="white"/>
</svg>
