<svg width="130" height="130" viewBox="0 0 130 130" fill="none" xmlns="http://www.w3.org/2000/svg">
<circle cx="65" cy="65" r="64.5" stroke="white"/>
<path d="M48.9826 33.0027C46.0953 33.0027 43.7238 35.3562 43.7238 38.2422C43.7238 40.6719 45.4064 42.7294 47.6611 43.3197L42.3167 42.4266H42.364C42.2797 42.4063 42.1685 42.386 42.0403 42.3657H42.0131L41.7721 42.3318C41.7024 42.3346 41.633 42.3437 41.5649 42.3589L41.5921 42.3386C40.9765 42.3378 40.3727 42.4887 39.8278 42.7789C39.8233 42.7789 39.8187 42.7789 39.8142 42.7789L32.6387 46.6514L20.2835 41.0201C19.7476 40.7766 19.167 40.6699 18.5772 40.6956C18.1844 40.7159 17.7985 40.7958 17.4329 40.9311C16.5035 41.274 15.7517 41.9584 15.3361 42.8582C15.3361 42.8627 15.3361 42.8671 15.3361 42.8716C14.481 44.7344 15.3158 46.9729 17.1795 47.8207L31.2319 54.2134C32.2955 54.6943 33.5242 54.6491 34.5525 54.0978L39.0055 51.6936L37.2169 62.2155C37.2069 62.2804 37.2023 62.346 37.2033 62.4116L37.0665 92.2619C37.0665 92.2664 37.0665 92.2708 37.0665 92.2753C37.0678 94.3253 38.7709 95.9966 40.8176 95.9977C42.6053 95.9977 43.7227 94.4389 44.0802 92.7494C44.4419 94.4368 45.5591 96.0007 47.346 95.9977C49.3927 95.9966 51.0806 94.3253 51.0818 92.2753C51.0818 79.8134 50.5618 68.5554 52.5838 56.9164L55.071 55.1148L57.4273 57.6107V63.144V63.1778C57.4271 63.1891 57.4271 63.2004 57.4273 63.2117V92.2633C57.4273 92.2679 57.4273 92.2725 57.4273 92.277C57.4285 94.3301 59.1255 96.0028 61.1755 95.9994C63.1089 95.9994 64.5313 94.3783 64.7066 92.4848C64.8821 94.3776 66.3026 95.9983 68.2352 95.9994C70.2827 95.9994 71.9728 94.3278 71.974 92.277C71.974 92.2759 71.974 92.2687 71.974 92.2677C71.974 92.2667 71.974 92.2687 71.974 92.2677V65.4917V65.4781C71.9785 65.4781 71.9831 65.4781 71.9876 65.4781V57.8526L74.8382 55.1274L77.3988 56.8984C77.4099 56.9054 77.4212 56.9121 77.4325 56.9186C79.4545 68.5577 78.9344 79.8158 78.9344 92.2776C78.9357 94.3277 80.6235 95.9988 82.6703 96C84.454 96.003 85.5714 94.4437 85.9361 92.7608C86.2999 94.442 87.4169 96 89.1986 96C91.2453 95.9988 92.9366 94.3277 92.9378 92.2776C92.9378 92.2766 92.9378 92.2695 92.9378 92.2685C92.9378 92.2675 92.9378 92.2695 92.9378 92.2685L92.8097 62.4151C92.8062 62.3491 92.797 62.2836 92.7825 62.2191L90.9939 51.6971L95.4469 54.1042C96.4773 54.6616 97.7125 54.7001 98.7799 54.2171L112.82 47.8244C114.685 46.9766 115.519 44.7412 114.664 42.8784C114.664 42.8774 114.664 42.8703 114.664 42.8693C114.664 42.8683 114.664 42.8703 114.664 42.8693C114.248 41.9695 113.493 41.2758 112.564 40.9332C112.198 40.7979 111.815 40.7201 111.422 40.7032C110.832 40.6829 110.251 40.7809 109.716 41.0244L97.3607 46.6557L90.1852 42.7832C89.6399 42.4931 89.0247 42.3416 88.409 42.343L88.4357 42.3632C88.3647 42.3452 88.2922 42.3338 88.2191 42.3293L87.9567 42.3632C87.8352 42.3835 87.7273 42.4038 87.6457 42.4241L82.356 43.3112C84.5999 42.7133 86.2718 40.6618 86.2718 38.2397C86.2718 35.3537 83.8976 33.0002 81.0102 33.0002C78.1228 33.0002 75.751 35.3537 75.751 38.2397C75.751 41.1258 78.1228 43.4854 81.0102 43.4854C81.1404 43.4854 81.2699 43.4821 81.3974 43.4652L75.6348 44.4318L71.2733 45.0616C71.1889 45.057 71.1054 45.0556 71.0203 45.0556C71.0158 45.0556 71.0112 45.0556 71.0067 45.0556C70.9595 45.0568 70.8859 45.0758 70.8238 45.0758C70.8149 45.0689 70.8062 45.0622 70.7971 45.0556H67.0275C68.5123 44.1284 69.5061 42.4829 69.5061 40.6145C69.5061 37.7284 67.1343 35.3657 64.2469 35.3657C61.3595 35.3657 58.9729 37.7284 58.9729 40.6145C58.9729 42.4823 59.973 44.1253 61.4606 45.0525H58.6495L54.3608 44.4316L48.5711 43.465C48.704 43.4785 48.8357 43.4852 48.9707 43.4852C51.8581 43.4852 54.2327 41.1256 54.2327 38.2395C54.2327 35.3535 51.8581 33 48.9707 33L48.9826 33.0027ZM48.9826 35.3516C50.6129 35.3516 51.9036 36.6356 51.9036 38.2422C51.9036 39.849 50.6129 41.1419 48.9826 41.1419C47.3524 41.1419 46.0649 39.849 46.0649 38.2422C46.0649 36.6356 47.3524 35.3516 48.9826 35.3516ZM81.0184 35.3516C82.6486 35.3516 83.9362 36.6356 83.9362 38.2422C83.9362 39.849 82.6486 41.1419 81.0184 41.1419C79.3882 41.1419 78.1003 39.849 78.1003 38.2422C78.1003 36.6356 79.3882 35.3516 81.0184 35.3516ZM64.2588 37.7313C65.889 37.7313 67.1646 39.0151 67.1646 40.6219C67.1646 42.2287 65.889 43.5123 64.2588 43.5123C62.6286 43.5123 61.3378 42.2287 61.3378 40.6219C61.3378 39.0151 62.6286 37.7313 64.2588 37.7313ZM18.681 43.0505C18.9004 43.037 19.114 43.0844 19.3158 43.1791L32.1991 49.0305C32.3631 49.1051 32.5419 49.1408 32.7219 49.1349C32.9018 49.129 33.078 49.0817 33.2368 48.9966L40.9223 44.8705C41.0741 44.7893 41.2416 44.7317 41.4137 44.708L42.378 44.8149L53.9946 46.7663C54.0014 46.7664 54.0081 46.7664 54.0148 46.7663L54.9334 46.8976L52.2357 48.797C52.1089 48.8862 52.0008 48.9997 51.9181 49.131C51.8354 49.2622 51.7796 49.4087 51.7537 49.5618L51.6997 49.858C47.9672 64.2842 48.7392 77.6018 48.7392 92.2766C48.7387 93.0484 48.1228 93.6525 47.332 93.6529C46.5401 93.6543 45.9376 93.0496 45.9372 92.2766V66.3813C45.9347 66.0703 45.8091 65.7729 45.5883 65.5544C45.3674 65.336 45.0694 65.2141 44.759 65.2157H43.3762C43.068 65.2174 42.773 65.3407 42.5548 65.5588C42.3366 65.7769 42.2128 66.0725 42.2104 66.3813V92.2766C42.2099 93.0484 41.6064 93.6529 40.8156 93.6529C40.0251 93.6525 39.406 93.0483 39.4055 92.2766L39.546 62.521L41.7128 49.7356C41.7506 49.5188 41.7269 49.2957 41.6444 49.0918C41.5618 48.8878 41.4239 48.7113 41.246 48.5821C41.0682 48.453 40.8575 48.3766 40.6384 48.3615C40.4193 48.3464 40.2007 48.3933 40.0069 48.4969L33.4415 52.0358C33.0575 52.2434 32.5954 52.2557 32.1962 52.0833L18.1472 45.6903C17.4289 45.3636 17.1305 44.5696 17.4543 43.8644C17.6082 43.531 17.8889 43.2651 18.2386 43.1364C18.2431 43.1364 18.2477 43.1364 18.2522 43.1364C18.3912 43.0823 18.5353 43.0566 18.681 43.0505ZM111.32 43.0536C111.325 43.0537 111.332 43.0537 111.337 43.0536C111.481 43.0595 111.625 43.0806 111.764 43.13C112.114 43.2592 112.395 43.525 112.549 43.858C112.873 44.5632 112.569 45.3576 111.856 45.6841L97.8192 52.08C97.4176 52.2619 96.9494 52.243 96.562 52.0327L89.9966 48.4967C89.803 48.3934 89.5846 48.3467 89.3659 48.3617C89.1471 48.3767 88.9368 48.4528 88.7591 48.5815C88.5814 48.7102 88.4432 48.8862 88.3604 49.0897C88.2775 49.2931 88.2532 49.5159 88.2903 49.7325L90.4699 62.5179L90.598 92.2764C90.5975 93.0482 89.9904 93.6492 89.1999 93.6496C88.4091 93.6496 87.8055 93.0484 87.8051 92.2764V66.378C87.8026 66.0676 87.6776 65.7708 87.4574 65.5524C87.2372 65.334 86.94 65.2118 86.6302 65.2126H85.2445C84.9342 65.211 84.6357 65.3327 84.4148 65.5511C84.194 65.7696 84.0688 66.067 84.0663 66.378V92.2764C84.0659 93.0493 83.4637 93.651 82.6715 93.6496C81.8811 93.6492 81.2772 93.0484 81.2767 92.2764C81.2767 77.6348 82.0292 64.3414 78.3252 49.9527L78.298 49.7659C78.2733 49.6081 78.2169 49.4571 78.132 49.3219C78.0471 49.1868 77.9354 49.0704 77.8041 48.9799L74.8468 46.9275L75.9912 46.7624C75.9979 46.7625 76.0046 46.7625 76.0114 46.7624L87.8537 44.7743L88.4242 44.6917C88.6577 44.6914 88.8762 44.7595 89.08 44.8663V44.8527L96.7655 48.9912C96.9243 49.0764 97.1004 49.1237 97.2804 49.1295C97.4604 49.1354 97.6392 49.0997 97.8032 49.0251L110.686 43.1738C110.888 43.0818 111.101 43.0448 111.32 43.0536ZM70.7509 47.3511C70.8267 47.3818 70.9053 47.4045 70.9857 47.4188C70.9902 47.4181 71.0263 47.4052 71.0776 47.4052C71.2969 47.4007 71.5114 47.4661 71.691 47.5885L76.0616 50.6165L76.4983 53.4152L71.4805 49.9343C71.3049 49.8106 71.0989 49.7376 70.8848 49.7232C70.6707 49.7088 70.4566 49.7535 70.2661 49.8526C70.0756 49.9517 69.9162 50.1012 69.8047 50.285C69.6932 50.4688 69.6342 50.6799 69.6342 50.895V65.4727V92.258C69.6337 93.0299 69.0265 93.6467 68.2361 93.6467C67.4455 93.6463 66.8417 93.0297 66.8413 92.258V66.8369C66.8396 66.5259 66.7151 66.2284 66.4948 66.0094C66.2745 65.7904 65.9763 65.6678 65.666 65.6686H63.7493C63.439 65.6678 63.1411 65.7904 62.9209 66.0094C62.7006 66.2284 62.5761 66.5259 62.5744 66.8369V92.258C62.574 93.0299 61.9668 93.6467 61.1763 93.6467C60.3844 93.6481 59.77 93.0311 59.7696 92.258V63.2889V63.2755C59.7756 63.241 59.7802 63.2061 59.7831 63.1712V57.1455C59.7832 57.141 59.7832 57.1304 59.7831 57.1259C59.7831 57.1248 59.7831 57.1176 59.7831 57.1166C59.7831 57.1156 59.7831 57.1085 59.7831 57.1075C59.7832 57.103 59.7832 57.0924 59.7831 57.0879V51.0896C59.786 50.871 59.7276 50.6558 59.6151 50.4685C59.5025 50.2812 59.34 50.1291 59.1459 50.0293C58.9518 49.9295 58.7339 49.8859 58.5164 49.9036C58.299 49.9212 58.0906 49.9994 57.915 50.1292L54.5483 52.5824C54.5346 52.5911 54.5212 52.6001 54.5079 52.6094L53.4855 53.3527L53.9794 50.4163L58.0052 47.5715C58.1787 47.4512 58.3941 47.385 58.6067 47.385H70.8094L70.7509 47.3511ZM71.9872 53.1566L72.8658 53.7653L71.9872 54.6126V53.1566ZM57.4281 53.4074V54.1812L56.9948 53.7228L57.4281 53.4074Z" fill="white"/>
</svg>
