<svg width="39" height="41" viewBox="0 0 39 41" fill="none" xmlns="http://www.w3.org/2000/svg">
<path d="M21.6995 16.9965C21.9146 17.0066 21.9479 16.8891 22 16.8068C22.7362 15.6386 23.7433 14.6755 24.9315 14.0043C26.1198 13.3331 27.4516 12.9747 28.8082 12.9608C30.3991 12.8379 31.9984 13.039 33.5128 13.5538C36.2094 14.5316 37.6583 16.6068 38.3548 19.346C38.8158 21.3745 39.0257 23.4551 38.98 25.5374C39.0007 30.1066 38.9804 34.6768 38.9994 39.2469C38.9994 39.7829 38.8589 39.9328 38.3378 39.9252C36.1187 39.8969 33.9003 39.8969 31.6823 39.9252C31.1347 39.9319 30.9423 39.8162 30.9464 39.2005C30.9737 34.8882 30.9646 30.576 30.9464 26.2629C30.9759 25.2106 30.8685 24.1595 30.6265 23.1365C30.535 22.6318 30.3453 22.1513 30.0683 21.7237C29.7914 21.296 29.4331 20.9295 29.015 20.647C28.5969 20.3646 28.127 20.1718 27.6344 20.0797C27.1419 19.9876 26.6365 19.9983 26.1481 20.1112C23.7774 20.4352 22.5028 21.8249 22.1777 24.4318C22.0818 25.2631 22.0379 26.0999 22.0469 26.937C22.0469 31.0559 22.035 35.1759 22.0614 39.2958C22.0614 39.8716 21.9087 40.0115 21.3611 40.0038C19.102 39.9716 16.8403 39.9801 14.578 40.0038C14.1486 40.0038 14.0068 39.8971 14.0068 39.4349C14.0195 31.0025 14.0195 22.5703 14.0068 14.1385C14.0068 13.7043 14.1029 13.5447 14.5553 13.5447C16.7523 13.5673 18.9494 13.5673 21.147 13.5447C21.6036 13.5447 21.7119 13.7143 21.6995 14.1426C21.6805 15.0916 21.6995 16.0484 21.6995 16.9965Z" fill="white"/>
<path d="M0.99991 26.8228C0.99991 22.6377 1.01093 18.4528 0.988601 14.2719C0.988601 13.7224 1.10363 13.533 1.67604 13.5423C3.89401 13.5779 6.1127 13.5779 8.33232 13.5423C8.90391 13.533 9.01574 13.7191 9.01491 14.2686C8.99727 22.5953 8.99727 30.9223 9.01491 39.2495C9.01491 39.8075 8.9153 40.0241 8.30566 40.0123C6.08714 39.9716 3.86873 39.9792 1.64938 40.0123C1.11502 40.0191 0.987793 39.8431 0.987793 39.3207C1.00847 35.1501 0.99991 30.9859 0.99991 26.8228Z" fill="white"/>
<path d="M9.63927 5.18757C9.63105 6.1278 9.35104 7.04405 8.8347 7.82115C8.31836 8.59824 7.58889 9.2008 6.73846 9.55285C5.88803 9.90489 4.95444 9.99048 4.05656 9.79881C3.15868 9.60715 2.33645 9.147 1.69374 8.47623C1.05103 7.80546 0.6174 6.95444 0.446496 6.03064C0.275591 5.10685 0.375573 4.15155 0.734073 3.28609C1.09257 2.42064 1.69327 1.68388 2.46034 1.16846C3.22742 0.653051 4.12659 0.382464 5.04369 0.390813C6.27082 0.410867 7.4407 0.925115 8.30075 1.82272C9.16079 2.72032 9.6416 3.92934 9.63927 5.18757Z" fill="white"/>
</svg>
