<svg width="93" height="75" viewBox="0 0 93 75" fill="none" xmlns="http://www.w3.org/2000/svg">
<path d="M46.5108 0.581109C47.2849 0.569817 47.7355 2.31257 48.0029 3.15717C48.2704 4.00177 49.5514 8.39381 49.6922 11.2232C49.833 14.0527 49.8471 23.0057 49.8471 24.4134C49.8471 25.8211 49.8048 26.1308 50.3257 26.7783C50.8466 27.4259 51.9305 28.0593 52.5498 28.5379C53.1693 29.0165 53.2537 29.1151 53.1693 28.5802C53.0848 28.0453 53.127 26.4123 53.1411 25.6521C53.1552 24.892 53.1834 24.4134 54.9711 24.3289C56.7589 24.2444 57.0686 24.343 57.1671 26.9191C57.2657 29.4952 56.4633 30.7621 56.8293 31.0014C57.1953 31.2408 63.544 34.5207 64.1916 34.8445C64.8391 35.1682 75.9881 41.0665 76.2837 41.2073C76.5793 41.3481 77.1846 41.6436 77.6633 42.5446C78.1419 43.4455 79.1273 45.2474 79.4229 45.7119C79.7184 46.1765 79.6235 45.997 79.5918 46.377C79.5601 46.7571 79.634 46.9894 79.3595 46.8521C79.085 46.7149 78.1243 44.8144 76.34 44.4132C75.7849 44.2884 74.9979 43.9254 74.0279 43.6109C71.8801 42.9143 69.1585 42.064 68.3584 41.7949C67.1971 41.4043 63.2274 40.1796 63.0585 40.1585C62.8895 40.1374 62.8965 40.0881 62.8825 40.3907C62.8684 40.6934 62.7347 41.3691 62.7135 41.5802C62.6924 41.7914 62.615 41.5802 62.5376 41.348C62.4601 41.1158 62.3616 40.5456 62.2912 40.2289C62.2208 39.9122 62.2983 39.9051 61.8619 39.8347C61.4255 39.7643 58.8565 39.0675 58.5045 38.9409C58.1526 38.8141 58.1244 38.7719 58.1244 39.0535C58.1244 39.335 57.9836 39.9332 57.9555 40.2289C57.9273 40.5245 57.8147 40.4049 57.7654 39.9544C57.7162 39.5039 57.5824 39.2083 57.5613 38.9267C57.5412 38.6581 57.5895 38.6241 57.3079 38.5748C57.0263 38.5256 56.1606 38.2651 55.7806 38.2018C55.4005 38.1385 55.0697 38.1877 54.6755 38.1877C54.2814 38.1877 54.1054 37.9765 54.0984 38.42C54.0913 38.8634 54.0069 39.1308 53.9787 39.4335C53.9506 39.7361 53.8731 39.7361 53.7253 39.1801C53.5776 38.6241 53.5916 38.5114 53.5424 38.3073C53.4931 38.1032 53.486 38.2017 53.1341 38.1877C52.7822 38.1736 51.086 38.1877 50.5088 38.1877C49.9316 38.1877 49.8472 38.149 49.8401 38.6909C49.8331 39.2329 49.914 44.8039 49.914 45.8385C49.914 46.8731 49.7451 54.2214 49.5762 56.0478C49.4073 57.8743 48.7316 61.2106 48.5627 61.749C48.3937 62.2874 48.246 62.298 48.6049 62.5725C48.9639 62.847 52.9758 65.7293 53.8204 66.2782C54.665 66.8273 58.8987 70.0157 59.321 70.1952C59.7433 70.3746 59.6483 70.5013 59.6377 71.0926C59.6272 71.6838 59.7433 72.0006 59.4161 71.9266C59.3173 71.9043 58.6826 71.6442 57.7479 71.346C55.5861 70.6563 51.9651 69.6076 51.0438 69.3717C49.724 69.0339 47.4014 68.3898 47.1057 68.2843C46.8101 68.1787 46.8101 68.1998 46.7573 68.4426C46.7045 68.6854 46.5884 69.0338 46.5884 69.2239C46.5884 69.3908 46.4934 69.5617 46.4089 70.6175C46.3244 71.6733 46.2505 73.1197 46.145 74.2388C46.0394 75.3579 45.9338 74.9145 45.8493 73.447C45.7649 71.9794 45.4165 69.1077 45.427 68.7276C45.4376 68.3475 45.3531 68.4004 44.8252 68.5799C44.2973 68.7593 38.8496 70.2269 38.1844 70.4169C37.5193 70.607 33.4088 71.7821 33.1484 71.8422C33.0112 71.8739 33.0956 71.6944 33.0428 71.1031C32.99 70.5119 33.0428 70.4063 33.4229 70.1847C33.803 69.963 36.1784 68.242 36.6958 67.8725C37.2131 67.503 41.2356 64.6524 41.7846 64.2513C42.3336 63.8501 44.0228 62.6148 44.1707 62.5198C44.3185 62.4248 44.3502 62.2876 44.1813 61.4324C44.0123 60.5772 43.2621 55.9312 43.1994 53.7147C43.136 51.4765 43.0304 49.3755 43.0621 48.1191C43.0938 46.8627 43.0833 40.9927 43.0833 40.2641C43.0833 39.5356 43.0551 38.399 43.0481 38.2723C43.041 38.1455 43.0269 38.1597 42.675 38.1597C42.3231 38.1597 40.5736 38.1996 40.1904 38.2089C39.9019 38.216 39.5077 37.9696 39.4866 38.4834C39.4654 38.9973 39.4092 39.4688 39.395 39.7011C39.3809 39.9333 39.2472 39.6799 39.1769 39.2858C39.1065 38.8916 39.1135 38.8283 39.0713 38.5538C39.029 38.2792 38.9939 38.1244 38.7968 38.1244C38.5997 38.1244 37.7902 38.1103 37.2975 38.23C36.8048 38.3496 36.1925 38.5326 35.8687 38.6311C35.545 38.7297 35.5731 38.6664 35.545 39.0675C35.5168 39.4687 35.4182 39.884 35.369 40.2922C35.3197 40.7005 35.2493 40.4963 35.1437 39.9896C35.0381 39.4828 35.0452 39.4828 34.9819 39.2646C34.9185 39.0464 35.0804 38.8705 34.5032 39.0042C33.9261 39.1379 32.0468 39.7643 31.4134 39.8488C30.7799 39.9333 30.8643 39.884 30.801 40.1726C30.7377 40.4611 30.625 40.9046 30.5617 41.4606C30.4984 42.0166 30.3787 42.0941 30.2802 41.2987C30.1817 40.5033 30.2028 40.623 30.1676 40.4118C30.1324 40.2006 30.1395 40.1655 29.696 40.25C29.2526 40.3344 25.3181 41.531 24.4805 41.8618C23.6429 42.1926 17.0409 44.3745 16.7452 44.4871C16.4496 44.5997 16.527 44.9658 16.351 44.7968C16.1751 44.6279 16.2173 44.6139 15.7246 44.9376C15.2319 45.2614 13.416 46.648 13.233 46.7958C13.05 46.9436 12.9304 47.2885 12.8671 46.634C12.8037 45.9794 12.8882 46.0146 13.0289 45.9864C13.1697 45.9583 13.1908 45.8245 13.2964 45.6978C13.402 45.5712 14.9504 43.0655 15.3516 42.5164C15.7528 41.9674 16.1751 41.693 16.7241 41.4185C17.2731 41.144 22.6294 38.237 23.2206 37.9273C23.8118 37.6176 29.7594 34.4785 30.238 34.2321C30.7166 33.9858 35.0593 31.6701 35.4606 31.5012C35.8617 31.3323 36.3685 30.9944 36.5375 30.9416C36.7064 30.8888 36.4108 30.2871 36.2418 29.2523C36.0729 28.2177 36.1891 25.6627 36.2735 25.0293C36.358 24.3958 36.9809 24.3008 38.1 24.3113C39.2191 24.3219 39.8526 24.5542 39.9793 25.3883C40.1059 26.2223 40.0743 27.5209 39.9898 28.2494C39.9054 28.9779 39.8209 29.0624 40.1376 28.8195C40.4543 28.5767 41.9535 27.6687 42.397 27.3308C42.8404 26.993 43.0832 26.8241 43.041 25.8528C42.9988 24.8814 43.0093 15.295 43.0093 14.4715C43.0093 13.6481 43.2838 9.65721 43.4105 8.84431C43.5371 8.03134 44.4346 4.7479 44.5929 4.10392C44.7512 3.45981 45.5465 0.595175 46.5108 0.581109Z" fill="#FEFAE0"/>
<path fill-rule="evenodd" clip-rule="evenodd" d="M64.0248 51.0922C64.921 51.7036 71.0222 55.2686 71.6336 54.0357C71.7049 53.9137 71.6844 53.7401 71.6235 53.5367C76.655 54.8203 83.9174 56.1748 88.2568 58.6909C90.6912 60.0966 92.0356 60.6464 92.2495 60.2187C92.8811 58.935 89.3467 55.615 87.4521 54.0969C95.0097 57.9064 89.4893 51.6831 86.8818 50.2875C92.9528 53.0582 88.3893 47.1708 85.0383 46.4579C89.3773 45.6226 85.0077 43.1479 82.4408 42.8015C86.0875 40.9681 82.0537 39.44 78.8452 39.695C85.0379 37.6171 78.8658 36.0587 75.5755 36.7716C80.1184 34.989 76.9812 33.5938 74.0478 34.3171C75.7084 31.7909 72.8665 32.2086 71.1656 32.8909C72.5507 30.324 71.2268 30.1714 69.3422 31.4752C69.5154 29.1121 69.0772 28.6743 66.9691 29.8556C67.458 27.0547 66.3476 27.4825 64.6362 28.9494C64.2592 26.749 63.5568 26.6471 62.2425 28.3992C61.5095 26.2395 60.9186 26.3011 59.5943 28.0629C59.3909 25.5979 58.2297 26.2601 57.1805 27.8389C56.5385 25.8218 55.2858 26.1074 54.9092 28.0629C54.0638 26.0357 52.4237 26.8509 52.7194 29.3054C50.2648 28.2973 50.3664 31.0474 50.6926 32.6057C48.6449 32.1168 49.063 36.354 49.2462 37.4849C49.3784 37.9227 49.6128 38.6868 50.173 38.6054C52.1188 38.3505 54.767 38.3098 56.5086 39.5729C59.5645 41.7934 59.2688 45.4707 59.2688 45.4707C59.2688 45.4707 59.1367 49.4432 62.6098 50.8586C63.2712 51.1329 63.7497 51.1736 64.0248 51.0922Z" fill="#FEFAE0"/>
<path d="M49.4485 37.0554C49.4384 37.1061 49.4078 37.1472 49.3873 37.1879C49.3466 37.2898 49.2958 37.3917 49.2552 37.4936V37.4835V37.4734C49.2346 37.4734 49.1839 37.0251 49.1839 36.9949C48.8069 34.4993 50.07 33.1347 51.3637 33.664L50.6915 32.6047C51.2719 33.1347 51.8426 33.8372 52.3823 34.4482C52.841 34.9674 53.0545 33.9085 53.3498 33.6334C52.6977 32.2277 52.657 31.7593 52.7182 29.3044C53.0646 31.4435 53.2684 32.2277 53.7775 33.3072C54.1037 33.022 54.3684 33.1138 54.633 33.1851C54.4904 30.5063 54.1851 30.5163 54.9592 27.8375C54.898 30.8418 54.7659 31.504 55.1936 33.511C55.2649 33.8364 55.4478 34.244 55.764 34.6105C55.764 32.4311 56.2425 29.9762 57.1797 27.8375C57.0883 28.3671 56.4157 32.5737 56.1406 34.3157C56.0693 34.764 56.1305 34.886 56.2529 34.764C56.5377 34.4683 56.9453 33.8674 57.2103 33.6435C58.005 30.8422 57.9438 30.1905 59.5935 28.0618C58.8295 29.7631 57.8826 32.299 57.8926 33.0832C57.8926 33.2463 58.1983 32.8697 58.85 33.2669C60.1743 30.7101 60.1643 29.9464 62.2418 28.3981C61.162 29.4981 58.9825 32.9918 59.339 33.9596C59.451 34.2649 59.5323 35.7012 60.0011 34.8353C61.2437 32.5741 61.6618 30.3435 64.6355 28.9483C63.1996 30.3028 63.0058 30.7306 62.0895 32.1363C61.8958 32.4319 61.4274 33.5419 61.203 33.8883C62.6699 32.7267 64.4014 30.2622 66.9482 29.8546C65.6444 30.6795 62.7924 32.2378 63.057 33.9798C63.1186 34.3874 63.0981 34.9674 62.9857 35.752C65.6138 33.6132 65.5832 32.6961 69.362 31.4435C68.1295 32.2378 66.8664 32.7167 65.6339 34.1119C66.51 33.8469 66.9172 34.2649 66.7544 35.3444C68.0381 34.0201 69.0462 33.0727 71.1648 32.8895C69.1171 33.9286 67.7219 34.509 66.8052 35.8942C66.5301 36.3118 66.4181 36.6784 66.0512 37.5339C68.4143 36.3525 71.6534 34.2742 74.0471 34.3153C72.4682 35.0588 70.7878 35.7307 69.107 36.4641C70.1969 36.3622 70.5739 36.9019 70.1462 37.931C71.8266 37.0856 73.6503 36.1383 75.5752 36.7698C72.2547 37.2177 69.6677 38.3281 68.6592 40.131C72.5093 39.1224 74.6991 38.6234 78.8449 39.6931C75.6871 39.7544 73.7417 39.7544 71.1346 39.9678C72.0207 39.9888 72.7847 40.1716 73.0393 40.6807C73.1412 41.0577 72.9676 41.4243 72.6623 41.7807C76.5837 41.2003 78.7128 40.9353 82.7051 42.6571C78.4171 42.0965 74.2106 41.465 70.2074 43.4107H70.2279C74.944 43.4107 80.5764 44.582 85.0379 46.4557C80.3424 45.427 76.8693 44.4898 72.4283 43.8993C74.832 44.6118 74.5163 45.4883 71.0532 46.4352C76.7879 46.5782 81.5648 47.8513 86.8818 50.2853C81.514 48.8393 77.4396 47.6681 71.135 46.8839C72.2454 47.2608 73.498 47.7494 74.1803 48.3399C75.4942 49.4709 74.2722 49.8173 72.6116 49.8676C77.7453 50.5709 82.5733 52.0273 87.4521 54.0947C79.9863 51.844 77.1443 51.0393 69.4034 49.8676C70.4019 50.9068 72.3066 52.7603 71.634 54.0335C71.7967 52.801 68.7715 50.3054 68.3542 49.5724C68.3442 49.5623 68.3442 49.5519 68.3337 49.5418C68.2829 49.4399 68.3031 49.3686 68.4151 49.3686C68.4662 49.3686 78.9572 50.3566 71.9192 47.5859C71.0838 47.2496 70.4728 47.0156 70.0551 46.8525C69.9529 46.8118 69.1686 46.5774 69.3116 46.4453C69.4743 46.2922 71.8781 46.3128 73.3245 45.1004C74.4957 44.1229 67.8854 44.1841 69.2194 43.2875C71.1853 41.9737 75.6871 39.8551 68.9141 40.7517C68.5371 40.8024 68.2519 40.8229 68.0381 40.8125L68.0071 40.8431L67.9869 40.8024C66.0008 40.68 70.6658 38.0519 69.6069 37.0643C68.7002 36.2293 64.2697 40.069 65.41 37.5734C68.6595 30.4536 62.0287 38.592 62.4665 35.9232C63.4239 29.9952 59.5738 37.6958 59.1968 35.3525C58.5552 31.4311 56.6911 35.1692 55.9376 35.5768C55.8353 35.6276 55.7338 35.3118 55.6218 35.139C53.8697 32.1444 53.1464 34.6907 52.8306 35.1797C52.7798 35.2611 52.6678 35.2204 52.5966 35.1289C49.6019 31.5741 49.2656 36.7686 49.4183 36.738C49.4392 36.6361 49.5407 36.351 49.5713 36.2595C50.0398 35.0677 50.4981 35.2715 51.089 36.5036C51.6388 35.017 52.2296 35.2816 53.0344 36.5447C53.9104 35.129 54.8271 35.2103 55.53 36.6466C56.752 35.3835 58.005 35.6586 58.7687 37.1658C60.9791 35.8419 61.6513 36.8399 61.5796 39.1112C64.1465 38.7749 64.4522 39.814 63.4336 41.9838C66.0617 42.4929 66.1124 43.8885 63.8819 45.0698C66.7645 46.7606 66.8563 48.7878 63.6273 48.095C64.4321 49.6534 65.3794 52.0982 62.6087 50.8552C66.5305 51.8231 62.2418 47.596 63.3623 47.708C68.4449 48.1768 62.3336 45.4367 63.3824 44.8052C67.4162 42.3402 62.4254 43.0024 62.7714 42.0651C64.513 37.3084 60.9582 41.026 60.9279 39.437C60.8566 34.5784 59.0333 38.7749 58.4118 37.6544C58.0755 37.0639 57.9841 36.6667 57.7597 36.4626C57.1286 35.8922 56.1913 36.554 55.855 36.9415C55.5799 37.2568 55.478 37.4812 55.0608 36.6458C54.0627 34.6493 53.2273 37.5928 52.8709 36.9922C51.6384 34.8732 51.6585 37.0836 51.2614 37.1243C51.18 37.1243 50.7728 36.4316 50.7217 36.3603C50.0188 35.3033 49.8054 36.3219 49.4485 37.0554Z" fill="#C58F75"/>
<path fill-rule="evenodd" clip-rule="evenodd" d="M28.6783 51.0922C27.7821 51.7036 21.6809 55.2686 21.0695 54.0357C20.9982 53.9137 21.0188 53.7401 21.0796 53.5367C16.0482 54.8203 8.78576 56.1748 4.44629 58.6909C2.01193 60.0966 0.667477 60.6464 0.453602 60.2187C-0.177944 58.935 3.35639 55.615 5.25103 54.0969C-2.30661 57.9064 3.21381 51.6831 5.82136 50.2875C-0.249626 53.0582 4.31378 47.1708 7.66485 46.4579C3.32578 45.6226 7.69547 43.1479 10.2623 42.8015C6.61564 40.9681 10.6494 39.44 13.8579 39.695C7.66525 37.6171 13.8374 36.0587 17.1276 36.7716C12.5847 34.989 15.7219 33.5938 18.6553 34.3171C16.9947 31.7909 19.8367 32.2086 21.5376 32.8909C20.1524 30.324 21.4764 30.1714 23.3609 31.4752C23.1877 29.1121 23.6259 28.6743 25.7341 29.8556C25.2451 27.0547 26.3555 27.4825 28.0669 28.9494C28.4439 26.749 29.1464 26.6471 30.4606 28.3992C31.1937 26.2395 31.7845 26.3011 33.1088 28.0629C33.3122 25.5979 34.4734 26.2601 35.5227 27.8389C36.1647 25.8218 37.4173 26.1074 37.7939 28.0629C38.6393 26.0357 40.2794 26.8509 39.9838 29.3054C42.4383 28.2973 42.3368 31.0474 42.0105 32.6057C44.0582 32.1168 43.6402 36.354 43.4569 37.4849C43.3248 37.9227 43.0904 38.6868 42.5301 38.6054C40.5843 38.3505 37.9361 38.3098 36.1945 39.5729C33.1387 41.7934 33.4343 45.4707 33.4343 45.4707C33.4343 45.4707 33.5664 49.4432 30.0933 50.8586C29.4319 51.1329 28.9534 51.1736 28.6783 51.0922Z" fill="#FEFAE0"/>
<path d="M43.2546 37.0554C43.2647 37.1061 43.2953 37.1472 43.3158 37.1879C43.3565 37.2898 43.4073 37.3917 43.448 37.4936V37.4835V37.4734C43.4685 37.4734 43.5192 37.0251 43.5192 36.9949C43.8962 34.4993 42.6331 33.1347 41.3394 33.664L42.0117 32.6047C41.4313 33.1347 40.8606 33.8372 40.3208 34.4482C39.8621 34.9674 39.6486 33.9085 39.3534 33.6334C40.0054 32.2277 40.0461 31.7593 39.9849 29.3044C39.6385 31.4435 39.4347 32.2277 38.9256 33.3072C38.5994 33.022 38.3348 33.1138 38.0701 33.1851C38.2127 30.5063 38.518 30.5163 37.7439 27.8375C37.8051 30.8418 37.9372 31.504 37.5095 33.511C37.4382 33.8364 37.2553 34.244 36.9391 34.6105C36.9391 32.4311 36.4606 29.9762 35.5234 27.8375C35.6148 28.3671 36.2875 32.5737 36.5625 34.3157C36.6338 34.764 36.5726 34.886 36.4502 34.764C36.1654 34.4683 35.7578 33.8674 35.4928 33.6435C34.6981 30.8422 34.7593 30.1905 33.1096 28.0618C33.8736 29.7631 34.8206 32.299 34.8105 33.0832C34.8105 33.2463 34.5048 32.8697 33.8531 33.2669C32.5288 30.7101 32.5389 29.9464 30.4613 28.3981C31.5412 29.4981 33.7206 32.9918 33.3641 33.9596C33.2522 34.2649 33.1708 35.7012 32.702 34.8353C31.4594 32.5741 31.0414 30.3435 28.0677 28.9483C29.5036 30.3028 29.6973 30.7306 30.6136 32.1363C30.8073 32.4319 31.2758 33.5419 31.5001 33.8883C30.0332 32.7267 28.3017 30.2622 25.755 29.8546C27.0587 30.6795 29.9108 32.2378 29.6461 33.9798C29.5845 34.3874 29.6051 34.9674 29.7174 35.752C27.0893 33.6132 27.12 32.6961 23.3411 31.4435C24.5736 32.2378 25.8367 32.7167 27.0692 34.1119C26.1932 33.8469 25.786 34.2649 25.9487 35.3444C24.6651 34.0201 23.6569 33.0727 21.5383 32.8895C23.586 33.9286 24.9812 34.509 25.8979 35.8942C26.173 36.3118 26.285 36.6784 26.6519 37.5339C24.2888 36.3525 21.0497 34.2742 18.6561 34.3153C20.2349 35.0588 21.9153 35.7307 23.5961 36.4641C22.5062 36.3622 22.1292 36.9019 22.5569 37.931C20.8766 37.0856 19.0528 36.1383 17.128 36.7698C20.4484 37.2177 23.0354 38.3281 24.044 40.131C20.1939 39.1224 18.004 38.6234 13.8582 39.6931C17.016 39.7544 18.9614 39.7544 21.5685 39.9678C20.6824 39.9888 19.9184 40.1716 19.6638 40.6807C19.5619 41.0577 19.7355 41.4243 20.0408 41.7807C16.1194 41.2003 13.9904 40.9353 9.99807 42.6571C14.286 42.0965 18.4926 41.465 22.4957 43.4107H22.4752C17.7591 43.4107 12.1267 44.582 7.66522 46.4557C12.3607 45.427 15.8339 44.4898 20.2748 43.8993C17.8711 44.6118 18.1869 45.4883 21.6499 46.4352C15.9152 46.5782 11.1383 47.8513 5.82133 50.2853C11.1891 48.8393 15.2635 47.6681 21.5682 46.8839C20.4577 47.2608 19.2051 47.7494 18.5228 48.3399C17.2089 49.4709 18.431 49.8173 20.0916 49.8676C14.9578 50.5709 10.1298 52.0273 5.251 54.0947C12.7168 51.844 15.5588 51.0393 23.2997 49.8676C22.3012 50.9068 20.3965 52.7603 21.0691 54.0335C20.9064 52.801 23.9316 50.3054 24.3489 49.5724C24.359 49.5623 24.359 49.5519 24.3694 49.5418C24.4202 49.4399 24.4 49.3686 24.2881 49.3686C24.2369 49.3686 13.7459 50.3566 20.784 47.5859C21.6193 47.2496 22.2303 47.0156 22.648 46.8525C22.7503 46.8118 23.5345 46.5774 23.3915 46.4453C23.2288 46.2922 20.825 46.3128 19.3787 45.1004C18.2074 44.1229 24.8177 44.1841 23.4837 43.2875C21.5178 41.9737 17.016 39.8551 23.789 40.7517C24.166 40.8024 24.4512 40.8229 24.6651 40.8125L24.6961 40.8431L24.7162 40.8024C26.7023 40.68 22.0374 38.0519 23.0963 37.0643C24.0029 36.2293 28.4334 40.069 27.2931 37.5734C24.0436 30.4536 30.6744 38.592 30.2366 35.9232C29.2792 29.9952 33.1293 37.6958 33.5063 35.3525C34.1479 31.4311 36.012 35.1692 36.7656 35.5768C36.8679 35.6276 36.9694 35.3118 37.0813 35.139C38.8334 32.1444 39.5568 34.6907 39.8725 35.1797C39.9233 35.2611 40.0353 35.2204 40.1066 35.1289C43.1012 31.5741 43.4375 36.7686 43.2848 36.738C43.2639 36.6361 43.1624 36.351 43.1318 36.2595C42.6634 35.0677 42.205 35.2715 41.6141 36.5036C41.0644 35.017 40.4735 35.2816 39.6687 36.5447C38.7927 35.129 37.876 35.2103 37.1732 36.6466C35.9511 35.3835 34.6981 35.6586 33.9345 37.1658C31.724 35.8419 31.0518 36.8399 31.1235 39.1112C28.5566 38.7749 28.2509 39.814 29.2695 41.9838C26.6415 42.4929 26.5907 43.8885 28.8213 45.0698C25.9386 46.7606 25.8468 48.7878 29.0758 48.095C28.2711 49.6534 27.3238 52.0982 30.0944 50.8552C26.1726 51.8231 30.4613 47.596 29.3408 47.708C24.2582 48.1768 30.3695 45.4367 29.3207 44.8052C25.2869 42.3402 30.2777 43.0024 29.9317 42.0651C28.1901 37.3084 31.745 41.026 31.7752 39.437C31.8465 34.5784 33.6698 38.7749 34.2913 37.6544C34.6276 37.0639 34.719 36.6667 34.9434 36.4626C35.5745 35.8922 36.5118 36.554 36.8481 36.9415C37.1232 37.2568 37.2251 37.4812 37.6424 36.6458C38.6405 34.6493 39.4758 37.5928 39.8323 36.9922C41.0647 34.8732 41.0446 37.0836 41.4417 37.1243C41.5231 37.1243 41.9303 36.4316 41.9815 36.3603C42.6843 35.3033 42.8978 36.3219 43.2546 37.0554Z" fill="#C58F75"/>
</svg>
