<svg width="22" height="44" viewBox="0 0 22 44" fill="none" xmlns="http://www.w3.org/2000/svg">
<path d="M14.2821 34.0166C14.2821 37.1288 14.2729 40.2402 14.2916 43.3524C14.2916 43.8268 14.2209 44.0082 13.7033 43.9997C11.4844 43.9641 9.26542 43.9726 7.04732 43.9997C6.60467 44.0048 6.50079 43.8659 6.50161 43.4237C6.51465 37.1619 6.50191 30.9003 6.5231 24.6385C6.5231 24.0775 6.41443 23.8889 5.83728 23.9042C4.05937 23.9483 2.27992 23.9104 0.50119 23.9282C0.123762 23.9282 -0.00319972 23.8242 6.10018e-05 23.4185C0.017995 21.1468 0.017995 18.8756 6.10018e-05 16.6039C6.10018e-05 16.2008 0.118928 16.0834 0.498802 16.0867C2.31421 16.1029 4.12976 16.0761 5.94436 16.1042C6.41227 16.1109 6.52725 15.9543 6.51992 15.4883C6.49465 13.8274 6.50585 12.1664 6.51156 10.5055C6.44436 8.47352 6.87787 6.45798 7.77095 4.64988C8.43863 3.37845 9.39901 2.29899 10.5656 1.50865C11.7321 0.718311 13.0686 0.240984 14.4556 0.12038C16.8329 -0.0735359 19.2223 -0.0329583 21.5924 0.240559C21.8834 0.257533 22 0.372182 22 0.697238C21.9875 2.75847 21.9875 4.82008 22 6.88189C22 7.25786 21.8548 7.31871 21.5434 7.31702C20.1848 7.31023 18.8283 7.31763 17.4735 7.33856C17.1067 7.34207 16.7412 7.39124 16.3857 7.48527C15.7571 7.62727 15.1999 8.00305 14.8182 8.54201C14.4365 9.08097 14.2564 9.74633 14.3119 10.4135C14.2638 12.1686 14.2989 13.9272 14.2745 15.6823C14.2696 16.0863 14.4684 16.0951 14.7537 16.0942C16.8805 16.0891 19.0083 16.1055 21.1351 16.0818C21.6079 16.0767 21.7269 16.2121 21.6609 16.6984C21.356 18.9464 21.0711 21.1967 20.8059 23.4491C20.757 23.865 20.5847 23.9308 20.2399 23.9282C18.4245 23.9146 16.6093 23.9346 14.7939 23.9108C14.3798 23.9057 14.2713 24.0334 14.2729 24.4586C14.2892 27.6405 14.2821 30.8288 14.2821 34.0166Z" fill="white"/>
</svg>
