<svg width="1589" height="1791" viewBox="0 0 1589 1791" fill="none" xmlns="http://www.w3.org/2000/svg">
<path d="M1790.27 0V296.702L1692.26 198.697V0H1690.46L1690.77 0.305962V197.197L1592.76 99.1915V0H1591.27V99.1915L1493.27 197.197V0H894.769V99.1915L796.763 197.197V0H794.964L697.264 97.699V0H695.772V99.1915L597.766 197.197V0H0V299.246H296.704L198.698 397.251H0V399.05L0.305965 398.744H197.198L99.1924 496.749H0V498.241H99.1924L197.198 596.246H0V597.739H197.198L99.1924 695.744H0V697.236H97.6999L0 794.943V796.741H197.198L99.1924 894.746H0V1790.99H597.751V1593.8L695.757 1691.8V1790.99H697.25V1691.8L795.255 1593.8V1790.69L794.949 1790.99H796.748V1592.3L894.754 1494.3V1791H1493.25V1691.81L1493.56 1691.5L1493.25 1691.2V1593.8L1591.26 1691.81V1791H1592.75V1693.3L1690.45 1791H1692.25V1593.8L1790.25 1691.81V1791H1791V894.754H1494.3L1592.3 796.749H1790.99V794.95L1790.69 795.256H1593.79L1691.8 697.251H1790.99V695.759H1691.8L1593.79 597.754H1790.99V596.261H1593.79L1691.8 498.256H1790.99V496.764H1693.29L1790.99 399.065V397.266H1593.79L1691.8 299.261H1790.99V0H1790.25H1790.27ZM1592.01 100.557L1690.76 199.308V297.754H1493.25V199.308L1592 100.557H1592.01ZM1692.26 200.801L1789.21 297.754H1692.26V200.801ZM1094.82 1690.76L996.812 1592.75H1193.7L1291.71 1690.76H1094.82ZM698.309 1491.75L796.315 1393.75H994.7L1092.71 1491.75H698.309ZM497.193 1690.76H300.301L398.307 1592.75H595.199L497.193 1690.76ZM100.245 1094.81L198.25 996.803V1193.69L100.245 1291.7V1094.81ZM296.697 896.246L199.743 993.199V896.246H296.697ZM299.249 696.192V497.808L397.255 399.803V795.697L299.249 893.701V696.811L299.555 696.505L299.249 696.199V696.192ZM595.207 198.256H398.314L300.308 100.251H497.201L595.207 198.256ZM995.319 100.251H1192.21L1094.21 198.256H897.313L995.319 100.251ZM1492.21 995.751L1590.21 1093.76H1393.32L1295.31 995.751H1492.21ZM1391.96 1094.5L1293.21 1193.25H1194.76V995.744H1293.21L1391.96 1094.49V1094.5ZM1491.77 1592.31V1689.7L1295.32 1493.25H1491.77V1591.7L1491.47 1592.01L1491.77 1592.31ZM1094.83 1491.75L996.073 1393L1094.83 1294.25H1193.27V1491.76H1094.83V1491.75ZM994.707 1392.26H797.815L895.821 1294.25H1092.71L994.707 1392.26ZM199.318 1591.26L101.312 1493.25H495.708L397.702 1591.26H199.318ZM297.764 1295.3V1491.75H101.312L297.764 1295.3ZM896.254 200.801L993.207 297.754H896.254V200.801ZM1293.2 199.749L1391.21 297.754H996.812L1094.82 199.749H1293.2ZM1491.77 497.808V696.192L1393.76 794.197V398.303L1491.77 300.298V497.189L1491.46 497.495L1491.77 497.801V497.808ZM1096.31 1292.75L1193.26 1195.8V1292.75H1096.31ZM698.309 1292.75L796.315 1194.75H896.254H1192.21L1094.21 1292.75H698.309ZM498.253 1491.75V1394.8L595.207 1491.75H498.253ZM596.259 1493.25V1590.2L499.305 1493.25H596.259ZM496.76 1491.75H299.249V1393.31L398.001 1294.56L496.753 1393.31V1491.75H496.76ZM498.253 497.808L596.259 399.803V596.254V794.197L498.253 696.192V497.808ZM696.511 299.552L696.817 299.246H994.7L1092.71 397.251H696.809L598.803 299.246H696.197L696.503 299.552H696.511ZM1294.26 893.694V696.803L1392.27 598.798V795.689L1294.26 893.694ZM397.262 1293.18L299.256 1391.19V996.788L397.262 1094.79V1293.18V1293.18ZM396.21 896.239L299.256 993.192V896.239H396.21ZM299.57 994.99L397.27 897.291V1092.69L299.57 994.99ZM597.766 894.746V698.296L695.772 796.301V994.684L597.766 1092.69V894.746ZM694.72 397.244H597.766V300.291L694.72 397.244ZM597.766 398.736H696.212L794.964 497.488L696.212 596.239H597.766V398.729V398.736ZM1292.78 696.184L1194.77 794.189V497.801L1195.08 497.495L1194.77 497.189V399.796L1292.78 497.801V696.184ZM1292.78 893.694L1195.08 795.995L1292.78 698.296V893.694ZM1193.28 1192.19L1095.27 1094.19V698.296L1192.97 795.995L1193.28 796.301V894.746V1192.19V1192.19ZM796.33 498.241H994.715L1092.72 596.246H995.334L995.028 595.94L994.722 596.246H894.784H698.332L796.337 498.241H796.33ZM1093.78 893.694L995.774 795.689V598.798L1093.78 696.803V893.694ZM796.77 696.803L894.776 598.798V696.184L894.47 696.49L894.776 696.796V895.485V994.677L796.77 1092.68V696.789V696.803ZM893.724 597.739L796.77 694.692V597.739H893.724ZM894.776 996.796V1193.25H698.324L894.776 996.796ZM896.269 597.739H993.222L896.269 694.692V597.739ZM994.274 598.791V794.189L896.575 696.49L994.274 598.791ZM996.827 597.739H1094.21L1094.52 598.045L1094.83 597.739H1193.27V794.189L996.819 597.739H996.827ZM1096.33 596.246L1193.28 499.293V596.246H1096.33ZM1094.52 595.94L996.819 498.241H1192.22L1094.52 595.94ZM795.27 597.739V696.184L696.518 794.935L597.766 696.184V597.739H795.278H795.27ZM697.264 796.301L795.27 698.296V895.187L697.264 993.192V796.301ZM795.27 897.291V1094.18L697.264 1192.19V995.296L795.27 897.291ZM695.772 1192.19L598.072 1094.49L695.772 996.788V1192.19ZM694.72 1193.24H597.766V1096.29L694.72 1193.24ZM896.269 895.485V698.288L994.274 796.294V994.677L896.269 1092.68V895.485ZM995.767 797.786L1093.77 895.791V1092.68L995.767 994.677V797.786ZM1193.28 299.231V495.682L996.827 299.231H1193.28ZM1192.23 496.741H995.334L897.328 398.736H1094.22L1192.23 496.741ZM895.216 398.736L993.222 496.741H796.33L698.324 398.736H895.216ZM896.269 1094.8L995.021 996.05L1093.77 1094.8V1193.25H896.261V1094.8H896.269ZM1095.27 1096.29L1192.23 1193.25H1095.27V1096.29ZM1194.77 797.793L1291.72 894.746H1194.77V797.793ZM1392.28 596.679L1294.28 694.684V497.794L1392.28 399.788V596.679ZM1293.53 496.435L1194.78 397.684V299.239H1392.29V397.684L1293.54 496.435H1293.53ZM596.281 396.192L499.327 299.239H596.281V396.192ZM498.275 300.298L595.975 397.997L498.275 495.697V300.298ZM398.777 1293.18V1096.29L496.783 1194.3V1391.19L398.777 1293.18ZM496.783 1192.19L398.777 1094.19V897.298L496.783 995.303V1192.19ZM399.829 896.239H596.281V1092.69L399.829 896.239ZM696.22 1194.74L696.526 1195.04L696.832 1194.74H794.218L597.766 1391.19V1194.74H696.212H696.22ZM1295.34 894.746L1491.79 698.296V894.746H1295.34ZM1393.78 396.192V299.239H1490.74L1393.78 396.192ZM995.036 297.44L897.336 199.741H1092.74L995.036 297.44ZM499.335 297.746L596.289 200.793V297.746H499.335ZM497.536 297.44L399.837 199.741H595.236L497.536 297.44ZM495.738 299.239L299.286 495.689V299.239H495.738ZM496.79 300.291V497.182L398.784 595.187V398.296L496.79 300.291ZM398.784 597.299L496.79 499.293V696.184L398.784 794.189V597.299ZM497.536 697.542L596.289 796.294V894.739H398.777V796.294L497.529 697.542H497.536ZM397.292 894.739H300.338L397.292 797.786V894.739ZM497.536 1493.54L595.236 1591.24H399.837L497.536 1493.54ZM498.283 1392.67V996.788L595.983 1094.49L596.289 1094.79V1194.73V1392.67L595.983 1392.98L596.289 1393.29V1490.68L498.283 1392.67ZM598.841 1392.23L696.847 1294.23H893.739L795.733 1392.23H598.841ZM794.241 1393.73L696.541 1491.43L598.841 1393.73H794.241ZM1194.79 1491.73V1295.28L1391.25 1491.73H1194.79ZM1195.85 1294.22H1392.74L1490.74 1392.23H1293.85L1195.85 1294.22ZM1195.85 1292.73L1293.55 1195.03L1391.25 1292.73H1195.85ZM1194.79 1291.68V1194.72H1291.75L1194.79 1291.68ZM1194.79 994.229V897.276L1291.75 994.229H1194.79ZM1491.77 98.7513H1394.81L1491.77 1.79846V98.7513ZM1491.77 100.244V297.754H1393.32L1294.57 199.002L1393.32 100.251H1491.77V100.244ZM1293.2 198.249H1096.31L1194.32 100.244H1391.21L1293.2 198.249ZM597.751 297.746V200.793L694.705 297.746H597.751ZM298.197 100.244L396.202 198.249H199.31L101.304 100.244H298.197ZM199.31 199.741H397.695L495.701 297.746H101.304L199.31 199.741ZM297.756 897.298V994.692L297.45 994.997L297.756 995.303V1293.18L199.75 1391.19V995.296L297.756 897.291V897.298ZM198.258 1195.8V1392.69L100.252 1490.69V1293.8L198.258 1195.8ZM98.7595 1490.69L1.05222 1393L98.7521 1295.3V1490.7L98.7595 1490.69ZM197.952 1592L99.1998 1690.75H0.746256V1493.24H99.1924L197.944 1591.99L197.952 1592ZM199.318 1592.74H396.21L298.204 1690.75H101.304L199.31 1592.74H199.318ZM597.759 1394.8L694.712 1491.75H597.759V1394.8ZM896.261 1494.3L993.215 1591.25H896.261V1494.3ZM897.313 1493.25H1193.27H1293.21L1391.22 1591.25H995.327L897.321 1493.25H897.313ZM1195.82 1592.74H1392.71L1490.71 1690.75H1293.82L1195.82 1592.74ZM1490.71 1692.24L1393.01 1789.94L1295.31 1692.24H1490.71ZM1592.32 1491.75L1592.02 1491.44L1591.71 1491.75H1393.33L1295.32 1393.74H1691.22L1789.22 1491.75H1592.33H1592.32ZM1492.83 1392.25L1394.82 1294.24H1591.71L1689.72 1392.25H1492.83ZM1591.71 1292.75H1393.33L1295.32 1194.75H1689.72L1591.71 1292.75ZM1295.32 1193.25L1393.33 1095.25H1591.71L1689.72 1193.25H1295.31H1295.32ZM1593.82 1095.25H1789.22L1691.52 1192.95L1593.82 1095.25ZM1592.33 1093.76L1494.33 995.751H1691.22L1789.22 1093.76H1592.33ZM1293.83 994.259L1195.82 896.254H1293.22L1293.52 896.56L1293.83 896.254H1591.71L1689.72 994.259H1293.83ZM1392.72 98.7587H996.819L1094.82 0.74625H1490.71L1392.71 98.7513L1392.72 98.7587ZM1092.71 0.74625L896.254 197.197V0.74625H1092.71ZM894.761 198.689L894.455 198.995L894.761 199.301V297.746H698.309L894.761 101.296V198.689ZM795.263 1.79846V198.689L697.257 296.694V99.8109L795.263 1.79846ZM695.765 101.296V296.694L598.065 198.995L695.765 101.296ZM596.259 0.74625V197.197L399.807 0.74625H596.259ZM397.695 0.74625L495.701 98.7513H99.8118L1.79848 0.74625H397.687H397.695ZM97.6999 98.7513H0.746256V1.79846L97.6999 98.7513ZM0.746256 100.244H99.1924L197.944 198.995L99.1924 297.746H0.746256V100.244ZM297.756 300.298V397.251H200.803L297.756 300.298ZM199.31 398.744H297.756V596.254H199.31L199.004 595.948L100.558 497.502L199.31 398.751V398.744ZM297.756 597.746V694.699L200.803 597.746H297.756ZM199.004 598.052L296.704 695.751H101.304L199.004 598.052ZM1.79848 795.256L99.8043 697.251H296.697L198.691 795.256H1.79848ZM297.756 698.303V894.754H101.304L297.756 698.303ZM198.258 896.246V994.692L99.5058 1093.44L0.746256 994.692V896.246H198.258ZM0.746256 996.803L98.7521 1094.81V1293.19L0.746256 1391.2V996.796V996.803ZM97.6999 1491.75H0.746256V1394.8L97.6999 1491.75ZM0.746256 1692.25H97.6999L0.746256 1789.2V1692.25ZM99.8118 1692.25H495.701L397.695 1790.25H1.79848L99.8043 1692.25H99.8118ZM399.807 1790.25L596.259 1593.8V1790.25H399.807ZM696.511 1690.44L598.065 1592L597.759 1591.69V1493.25H696.205L696.511 1493.55L696.817 1493.25H795.263V1591.69L696.511 1690.44ZM796.755 1493.25H893.709L796.755 1590.2V1493.25ZM896.254 1592.74H994.7L1093.45 1691.49L994.7 1790.25H896.254V1592.74V1592.74ZM996.812 1790.25L1094.82 1692.25H1293.2L1391.21 1790.25H996.804H996.812ZM1394.81 1790.25L1491.77 1693.3V1790.25H1394.81ZM1493.26 1493.25H1590.21L1493.26 1590.2V1493.25ZM1493.56 1592L1591.26 1494.3V1689.7L1493.56 1592ZM1690.76 1789.19L1592.76 1691.19V1494.3L1690.76 1592.3V1789.19ZM1790.26 1689.7L1593.81 1493.25H1790.26V1689.7ZM1790.26 1490.7L1693.31 1393.75H1790.26V1490.7ZM1691.82 1392.26L1593.06 1293.5L1691.82 1194.75H1790.26V1392.26H1691.82V1392.26ZM1790.26 1193.25H1693.31L1790.26 1096.3V1193.25ZM1593.81 896.246H1790.26V1092.7L1593.81 896.246ZM1493.25 893.694V796.741H1590.2L1493.25 893.694ZM1591.7 795.249H1493.25V597.739H1591.7L1592 598.045L1690.45 696.49L1591.7 795.241V795.249ZM1493.25 596.246V499.293L1590.2 596.246H1493.25ZM1592 595.94L1494.3 498.241H1689.7L1592 595.94ZM1789.2 398.744L1691.2 496.749H1494.3L1592.31 398.744H1789.2ZM1493.24 495.697V299.246H1689.7L1493.24 495.697Z" fill="url(#paint0_radial_2_306)" fill-opacity="0.5"/>
<defs>
<radialGradient id="paint0_radial_2_306" cx="0" cy="0" r="1" gradientUnits="userSpaceOnUse" gradientTransform="translate(868.986 895.5) rotate(-0.0311413) scale(718.446 718.44)">
<stop stop-color="#FCDE6C"/>
<stop offset="0.21" stop-color="#FCDE6C"/>
<stop offset="0.43" stop-color="#FCDE6C"/>
<stop offset="0.748908" stop-color="white" stop-opacity="0"/>
</radialGradient>
</defs>
</svg>
