<svg width="70" height="49" viewBox="0 0 70 49" fill="none" xmlns="http://www.w3.org/2000/svg">
<path opacity="0.2" d="M46.0035 23.9912C43.3157 21.3034 41.9718 18.0397 41.9718 14.1999C41.9718 10.3602 43.3157 7.03247 46.0035 4.21668C48.6913 1.52888 51.9551 0.18498 55.7948 0.18498C59.6345 0.184981 62.9623 1.52888 65.7781 4.21668C68.4659 7.03248 69.8098 10.3602 69.8098 14.1999C69.8098 20.4715 67.058 27.063 61.5544 33.9745C55.9228 40.886 47.9874 45.8136 37.7481 48.7574L36.0202 44.7257C41.7798 42.8059 46.7075 40.374 50.8032 37.4303C54.7709 34.6145 57.3307 32.2466 58.4826 30.3268L60.2105 27.255C59.0586 27.767 57.5867 28.0229 55.7948 28.0229C51.9551 28.0229 48.6913 26.679 46.0035 23.9912ZM10.1021 23.9912C7.41432 21.3034 6.07042 18.0397 6.07042 14.1999C6.07042 10.3602 7.41432 7.03247 10.1021 4.21668C12.7899 1.52888 16.0537 0.184977 19.8934 0.184977C23.7331 0.184977 27.0609 1.52888 29.8767 4.21668C32.5645 7.03247 33.9084 10.3602 33.9084 14.1999C33.9084 20.4715 31.1566 27.063 25.653 33.9745C20.0214 40.886 12.086 45.8136 1.84673 48.7574L0.118853 44.7257C5.87843 42.8059 10.8061 40.374 14.9018 37.4303C18.8695 34.6145 21.4293 32.2466 22.5812 30.3268L24.3091 27.255C23.1572 27.767 21.6853 28.0229 19.8934 28.0229C16.0537 28.0229 12.7899 26.679 10.1021 23.9912Z" fill="black"/>
</svg>
