<svg width="301" height="304" viewBox="0 0 301 304" fill="none" xmlns="http://www.w3.org/2000/svg">
<path d="M290.485 208.354C290.469 184.489 290.53 130.906 290.485 106.602V98.9495C290.485 97.1387 289.019 95.6734 287.208 95.6734C285.398 95.6734 283.932 97.1387 283.932 98.9495V104.687L224.895 134.296C223.788 134.849 223.087 135.985 223.087 137.223C223.087 138.461 223.788 139.597 224.895 140.151L283.932 169.759V207.707C281.609 207.971 279.314 208.706 277.252 210.076L234.771 238.409C232.839 239.692 230.238 239.26 228.836 237.392L169.623 159.878C159.163 146.244 142.906 137.304 127.116 131.309C123.743 130.644 118.266 126.832 115.569 129.927C115.089 127.018 114.647 124.028 114.242 120.96C126.044 112.583 134.205 98.6412 136.35 82.9048C142.293 79.2677 146.383 67.4818 142.726 61.4596H149.499C161.591 61.1422 161.585 43.4407 149.499 43.1241H138.7C129.331 -14.3953 48.7063 -14.3697 39.2705 43.1241H28.5189C16.4333 43.4417 16.4335 61.1454 28.5191 61.4596H35.3221C31.7604 67.4843 35.6964 79.1096 41.665 82.8824C43.8074 98.5902 51.9759 112.544 63.7909 120.965C63.3698 124.152 62.9138 127.229 62.4245 130.182C61.6255 129.595 60.5949 129.357 59.5909 129.647C53.9825 131.269 48.6972 133.263 43.8853 135.563C29.6464 142.332 18.6581 152.062 11.2328 164.479C4.29343 176.054 0.777344 189.405 0.777344 204.157V300.681C0.777345 302.492 2.24265 303.957 4.05348 303.957H166.356C168.167 303.957 169.632 302.492 169.632 300.681V235.853L211.675 280.618L213.051 282.064C219.965 289.429 231.396 289.982 239.061 283.318L295.616 234.205C304.444 227.046 301.435 211.545 290.485 208.354ZM233.671 137.223L283.932 112.016V162.431L233.671 137.223ZM119.55 135.729C122.325 136.56 125.069 137.501 127.749 138.59L105.399 158.828C105.399 158.828 96.1562 149.211 96.2175 149.197C105.166 147.704 114.187 143.25 119.55 135.729ZM68.0118 136.28C68.6911 132.653 69.3221 128.805 69.8928 124.775C75.8704 127.696 82.3687 129.345 89.0089 129.324C95.6002 129.347 102.092 127.694 108.125 124.759C108.69 128.738 109.322 132.592 110.007 136.279C98.3206 145.592 79.6934 145.662 68.0118 136.28ZM88.9833 6.28685C110.518 6.28685 128.825 22.1908 132.13 43.0985H105.594C101.14 26.144 76.8448 26.1528 72.3749 43.0985H45.8433C49.1995 22.1908 67.5029 6.28685 88.9833 6.28685ZM98.6901 43.0985H79.2829C82.7108 34.8406 95.277 34.8474 98.6901 43.0985ZM28.5189 54.9073C27.0792 54.9073 25.905 53.7332 25.905 52.2935C25.905 50.8506 27.0792 49.6764 28.5189 49.6764H149.499C152.888 49.6572 152.962 54.9183 149.499 54.9073H28.5189ZM47.9805 80.5501C47.8589 79.4431 47.1839 78.4705 46.1889 77.9746C44.1125 76.938 42.1289 74.241 41.1243 71.0896C39.7102 66.7161 40.814 62.9665 43.7734 61.9779C45.4142 61.435 47.1943 62.7319 48.6364 61.4692H129.429C130.86 62.7303 132.681 61.4552 134.248 61.9617C137.233 62.9697 138.359 66.7161 136.99 71.0768C135.873 74.3337 133.912 76.97 131.871 77.9554C130.853 78.4449 130.159 79.4271 130.037 80.5501C128.365 96.0069 120.318 109.515 108.583 116.997C81.3963 134.041 50.6224 110.916 47.9805 80.5501ZM59.1462 136.625C59.1876 136.612 59.9315 137.39 60.7633 138.271C66.4265 144.651 73.7214 147.747 81.868 149.214L72.6283 158.828L51.2652 139.506C53.8137 138.424 56.407 137.495 59.1462 136.625ZM291.332 229.246L291.326 229.253L234.768 278.372C229.764 282.717 222.322 282.362 217.815 277.566L179.464 236.925L168.778 225.183C166.91 222.966 162.977 224.48 163.08 227.387V297.405H45.8177V264.122C45.8177 262.311 44.3524 260.846 42.5416 260.846C40.7308 260.846 39.2655 262.311 39.2655 264.122V297.405H7.32961V204.157C7.22903 177.104 20.5785 154.606 44.7784 142.473L70.5903 165.819C71.9014 167.006 73.9208 166.939 75.1494 165.662L89.0153 151.236L102.881 165.662C104.108 166.939 106.135 167.006 107.44 165.819L134.37 141.433C145.391 146.788 156.962 153.911 164.411 163.848L223.615 241.352C227.089 245.969 233.587 247.07 238.406 243.861L280.883 215.53C284.659 213.016 289.784 213.864 292.535 217.437C295.293 221.094 294.765 226.283 291.332 229.246ZM93.7158 179.824C93.6284 186.013 84.4073 186.045 84.3131 179.824C84.4153 173.649 93.6222 173.682 93.7158 179.824ZM93.7158 205.083C93.6286 211.272 84.4071 211.304 84.3131 205.083C84.4153 198.907 93.6222 198.941 93.7158 205.083ZM93.7158 230.342C93.6284 236.531 84.4073 236.563 84.3131 230.342C84.4153 224.167 93.6222 224.2 93.7158 230.342Z" fill="white"/>
</svg>
