<svg width="348" height="330" viewBox="0 0 348 330" fill="none" xmlns="http://www.w3.org/2000/svg">
<path d="M90.3936 226.727H120.877C126.865 226.727 131.747 231.609 131.747 237.598V238.654C176.809 214.09 159.477 229.168 202.494 230.68C212.385 231.043 222.825 231.161 232.234 232.623C245.09 234.608 255.192 238.992 256.822 249.027L284.695 245.293L318.81 221.566C325.685 216.278 332.983 215.94 338.583 218.525C343.567 220.848 347.038 225.493 347.824 230.976C348.778 237.514 345.957 245.369 337.004 252.042L281.435 293.416C280.953 293.779 280.455 294.041 279.923 294.185L211.448 317.025C210.78 317.262 210.079 317.338 209.412 317.287L145.65 311.661L131.739 312.472V319.129C131.739 325.118 126.857 330 120.868 330H90.3851C84.6669 330 79.92 325.523 79.5399 319.872L5.70133 325.903C2.56771 326.241 0 323.867 0 320.877V236.711H0.0253382C0.0253382 233.763 2.54237 231.44 5.48172 231.66L79.5146 237.716C79.523 231.567 84.3882 226.727 90.3936 226.727ZM131.747 250.193V302.344L146.233 301.534L209.277 307.109L276.08 284.817L330.981 243.916C336.488 239.82 338.304 235.63 337.831 232.403C336.97 226.583 329.74 225.527 325.044 229.506L289.493 254.264C288.868 254.72 288.107 255.007 287.288 255.126L255.158 259.434C250.107 268.962 235.545 269.899 212.808 271.361C207.638 271.699 201.988 272.053 195.399 272.602C192.595 272.822 190.154 270.736 189.943 267.957C189.723 265.152 191.81 262.711 194.614 262.5C200.619 262.018 206.659 261.613 212.166 261.275C232.707 259.957 245.107 259.146 246.644 253.681C246.72 253.419 246.813 253.174 246.906 252.938C247.075 246.805 239.963 244.035 230.722 242.59C222.006 241.222 211.355 241.103 202.157 240.774C156.115 239.152 178.768 224.378 131.747 250.193ZM120.877 236.855H90.3936C90.0135 236.855 89.6503 237.193 89.6503 237.598V319.129C89.6503 319.559 90.0304 319.872 90.3936 319.872H120.877C121.257 319.872 121.595 319.534 121.595 319.129V237.598C121.595 237.193 121.257 236.855 120.877 236.855ZM79.523 247.895L10.161 242.219V315.395L79.523 309.719V247.895ZM195.07 91.1096C210.73 98.864 209.319 121.688 192.942 127.525C182.645 131.191 171.276 125.802 167.611 115.505C163.945 105.208 169.334 93.8549 179.63 90.1974C184.301 88.5248 189.588 88.6178 194.453 90.8224C194.665 90.89 194.884 90.9914 195.07 91.1096ZM196.987 105.039C193.583 95.4599 180.297 94.9108 175.99 103.958C171.682 113.055 180.542 122.972 190.095 119.568C196.033 117.447 199.091 110.96 196.987 105.039ZM161.816 28.6101C177.687 36.1279 176.615 59.2559 160.001 65.1773C149.704 68.8686 138.352 63.4794 134.695 53.1825C131.004 42.8856 136.393 31.5328 146.689 27.8498C151.453 26.1435 156.884 26.2618 161.816 28.6101ZM164.063 42.6913C160.642 33.1123 147.348 32.5886 143.065 41.6354C138.758 50.7328 147.618 60.6497 157.171 57.2202C163.083 55.1169 166.175 48.6295 164.063 42.6913ZM187.358 30.8654C188.338 28.7621 190.855 27.8498 192.958 28.855C195.062 29.8349 195.948 32.3521 194.969 34.4554L153.531 121.874C152.525 123.977 150.008 124.889 147.905 123.884C145.819 122.904 144.915 120.387 145.895 118.284L187.358 30.8654ZM169.815 0C212.723 0 247.489 34.7933 247.489 77.6958C247.489 88.018 245.478 97.8841 241.813 106.906L275.995 169.405C277.98 172.784 275.159 176.349 271.831 175.867L244.152 171.703L232.758 197.204C231.347 200.363 226.896 200.583 225.215 197.517L199.048 149.673C180.373 157.267 159.257 157.267 140.582 149.673L114.415 197.517C112.743 200.583 108.283 200.363 106.898 197.204L95.4783 171.703L67.7994 175.867C64.4715 176.349 61.6251 172.775 63.6353 169.405L97.8264 106.914C86.0014 77.7971 92.9866 44.6848 114.897 22.7478C128.943 8.69199 148.361 0 169.815 0ZM237.311 116.18C230.106 128.8 219.472 139.19 206.684 146.083L228.518 186.046L237.784 165.334C238.578 163.585 240.419 162.631 242.235 162.892L264.669 166.246L237.311 116.18ZM132.938 146.083C120.15 139.19 109.525 128.792 102.311 116.18L74.9451 166.246L97.3788 162.892C99.1947 162.631 101.045 163.585 101.83 165.334L111.096 186.046L132.938 146.083ZM218.779 28.7283C191.725 1.69785 147.888 1.69785 120.851 28.7283C93.8144 55.7588 93.8228 99.6073 120.851 126.638C147.88 153.694 191.725 153.694 218.779 126.638C245.808 99.6073 245.808 55.7673 218.779 28.7283Z" fill="white"/>
</svg>
