<svg width="236" height="241" viewBox="0 0 236 241" fill="none" xmlns="http://www.w3.org/2000/svg">
<path d="M194.897 99.0942C195.285 76.2246 189.277 70.4103 177.454 70.0227C177.26 66.1465 176.873 62.0765 176.679 58.2002C176.097 48.3159 176.291 38.6254 175.904 28.7411C177.648 28.7411 179.586 28.7411 181.33 28.3535C184.431 27.5783 184.237 23.3145 182.881 20.9887C182.106 20.0197 180.749 19.8259 179.586 19.6321C176.097 19.4383 172.609 19.2444 169.12 19.2444C162.143 19.4383 154.972 18.4692 147.995 19.4383C146.638 19.6321 144.894 20.4073 145.088 21.9578C144.894 24.4773 144.7 28.7411 148.189 29.1288C149.352 29.1288 150.708 29.1288 151.871 29.1288C150.902 43.6645 150.708 58.2002 150.515 72.736C150.515 72.9298 150.515 72.9298 150.515 73.1236C149.933 73.3174 149.352 73.3174 148.964 73.3174C142.956 74.0927 137.335 76.6122 134.041 82.0389C127.451 92.3108 129.777 105.102 129.002 116.731C129.195 129.135 127.451 152.586 138.111 160.726C139.08 161.307 140.243 161.501 141.405 161.889C141.212 162.858 141.212 163.827 141.212 164.602C141.212 167.315 142.762 170.029 145.669 170.029C148.189 170.222 151.871 170.029 152.84 167.121C153.034 165.765 154.197 163.245 153.615 161.889C158.267 161.695 163.112 161.501 167.764 161.113C170.089 160.92 172.609 160.532 174.935 160.338C174.935 161.113 175.128 161.889 175.128 162.47C175.322 164.214 175.904 166.152 177.454 167.121C180.555 168.866 185.982 167.897 185.982 163.633C185.788 162.276 186.757 159.369 185.594 158.206C189.083 157.431 192.571 155.687 193.734 152.004C193.928 151.423 193.928 151.035 193.54 150.648C198.386 143.67 194.509 106.459 194.897 99.0942ZM173.19 28.7411C173.384 42.5016 173.578 56.2622 174.741 70.0227C173.966 70.0227 173.19 70.0227 172.415 70.2165C172.221 66.9217 172.221 63.6269 172.221 60.3322C172.027 49.8664 171.834 39.2069 171.64 28.7411C172.027 28.7411 172.609 28.7411 173.19 28.7411ZM157.879 67.5031C158.073 54.7117 158.073 41.9202 158.267 29.1288C161.562 28.9349 165.05 28.7411 168.345 28.7411H168.539C168.539 30.0978 168.733 31.2607 168.733 32.6173C169.12 45.215 168.926 58.0064 169.508 70.6041C166.019 70.9917 162.143 71.5731 157.879 72.1546C158.073 70.7979 157.685 68.666 157.879 67.5031ZM153.615 68.666C153.809 55.4869 154.003 42.3078 154.972 29.1288C155.166 29.1288 155.36 29.1288 155.554 29.1288C155.554 31.4545 155.36 33.974 155.36 36.2997C155.36 48.1221 155.166 60.1384 154.972 71.9608C154.972 72.1546 154.972 72.3484 154.972 72.3484C154.585 72.3484 154.003 72.5422 153.422 72.5422C153.809 71.3793 153.422 69.8288 153.615 68.666ZM149.933 166.152C148.383 166.734 146.638 166.928 145.088 166.54C143.925 165.571 144.119 163.633 144.313 162.276L144.506 162.082C146.638 162.082 148.964 161.889 151.096 161.889C150.515 163.051 150.708 165.183 149.933 166.152ZM183.075 162.276C183.075 162.858 182.881 163.633 182.687 164.214C181.524 164.796 180.167 164.796 179.005 164.408C177.648 163.439 178.036 161.113 177.648 159.757C179.586 159.563 181.33 159.175 183.268 158.788C182.881 159.563 183.268 161.307 183.075 162.276ZM192.377 144.833C192.377 146.19 190.827 148.71 191.215 150.26L191.021 150.454C190.439 151.81 189.858 153.167 188.501 153.749C180.361 156.85 171.446 157.431 162.725 158.206C157.879 158.594 152.646 158.788 147.607 158.981C143.925 158.981 139.467 159.563 137.335 155.687C134.041 150.841 133.072 144.64 132.49 138.825C131.327 128.359 131.909 117.894 132.103 107.428C131.909 90.9541 133.653 76.0308 153.809 75.837C154.197 75.837 154.391 75.6432 154.778 75.4493C155.747 75.2555 156.523 75.0617 157.298 75.0617C166.213 74.2865 180.943 70.0227 187.92 76.6122C191.021 80.6822 191.215 86.3027 191.796 91.3418C191.99 109.172 194.122 127.003 192.377 144.833Z" fill="white"/>
<path fill-rule="evenodd" clip-rule="evenodd" d="M24.776 158.988L10.1871 158.743C9.6294 158.733 9.09126 158.811 8.60203 158.968C8.13237 159.115 7.70183 159.34 7.3398 159.634C7.30066 159.663 7.2713 159.693 7.23217 159.712C6.95818 159.938 6.74294 160.202 6.58638 160.476C6.4494 160.731 6.37112 160.995 6.36134 161.26L4.81535 222.332C4.82514 222.41 4.82514 222.489 4.82514 222.577C4.82514 222.665 4.81535 222.763 4.81535 222.88C4.83492 223.086 4.90341 223.301 5.01105 223.507C5.15782 223.801 5.39264 224.075 5.67639 224.32C6.00906 224.604 6.42004 224.839 6.87991 225.006C7.28109 225.152 7.7214 225.25 8.17147 225.28C8.23018 225.27 8.28889 225.27 8.34759 225.27H8.35738C8.43566 225.27 8.51393 225.28 8.59221 225.28H8.602C8.77812 225.29 8.82704 225.29 8.84661 225.29H8.87597L22.6723 225.515C22.7604 225.505 22.8387 225.505 22.9267 225.505C23.0343 225.505 23.1713 225.515 23.3181 225.525C23.7878 225.505 24.2379 225.417 24.6586 225.28C25.1185 225.123 25.5294 224.908 25.8719 224.633C26.1948 224.389 26.4394 224.105 26.6058 223.801C26.7134 223.615 26.7819 223.419 26.8112 223.204V223.106V223.086L26.821 223.096C26.821 223.057 26.821 222.988 26.8308 222.91C26.821 222.969 26.821 223.037 26.821 223.096L24.776 158.988ZM26.84 222.9L24.776 158.988C25.3142 158.997 25.8322 159.095 26.3215 159.272C26.8009 159.438 27.2119 159.673 27.5445 159.957C27.8479 160.212 28.0827 160.496 28.2295 160.799C28.3567 161.054 28.4154 161.328 28.4154 161.593L26.8596 222.675V222.734C26.8498 222.773 26.8498 222.802 26.8498 222.832V222.841L26.84 222.9ZM96.6534 203.196C95.3814 202.814 94.6671 201.472 95.0585 200.199C95.4401 198.926 96.7806 198.211 98.0526 198.602C114.726 203.715 130.488 207.319 142.474 208.239C148.609 208.71 153.668 208.484 157.239 207.397C160.194 206.496 162.004 205.008 162.347 202.824C162.435 202.246 162.435 201.57 162.337 200.816C159.724 193.696 141.065 187.908 124.235 182.688C113.844 179.466 104.118 176.449 98.658 173.178C98.5993 173.149 98.5503 173.11 98.5014 173.07C95.8888 171.21 93.6287 169.555 91.5642 168.036C73.6583 154.893 70.2239 152.376 33.0904 166.695L31.7499 219.197C38.0902 220.079 43.9123 221.009 49.4601 222.351C55.6048 223.84 61.3485 225.818 66.9649 228.785C71.3191 231.087 75.2818 232.546 79.3816 233.545C83.5008 234.544 87.8258 235.073 92.8257 235.504C98.0997 235.954 103.53 236.16 108.716 236.16C114.665 236.17 120.409 235.935 125.291 235.562C143.276 233.467 159.273 230.999 174.705 226.082C190.116 221.176 205.067 213.811 221.055 201.892C226.73 197.652 229.979 194.175 230.957 191.746C231.192 191.158 231.261 190.786 231.163 190.62C231.026 190.394 230.566 190.208 229.783 190.061C226.642 189.484 220.85 190.463 212.513 193.431C202.748 196.907 193.736 198.905 182.219 201.451C177.542 202.49 172.454 203.616 166.789 204.948C165.732 208.395 162.904 210.687 158.648 211.98C154.46 213.253 148.814 213.547 142.131 213.027C129.793 212.087 113.679 208.406 96.6534 203.196ZM33.2194 161.514C71.0756 147.049 75.0283 149.958 94.4035 164.178C96.4974 165.716 98.7772 167.39 101.204 169.114C106.184 172.062 115.597 174.981 125.646 178.095C143.61 183.668 163.542 189.847 166.909 199.298C166.987 199.484 167.046 199.68 167.075 199.896L167.085 199.954C172.271 198.74 176.899 197.712 181.175 196.772C192.476 194.274 201.341 192.316 210.91 188.907C220.059 185.646 226.732 184.628 230.646 185.352C232.857 185.763 234.413 186.723 235.284 188.173C236.184 189.681 236.243 191.493 235.421 193.559C234.139 196.771 230.352 200.983 223.924 205.782C207.495 218.033 192.074 225.624 176.166 230.687C160.305 235.73 144.063 238.247 125.843 240.373C125.794 240.383 125.745 240.383 125.696 240.392C120.804 240.774 114.933 241.009 108.73 241C103.299 240.99 97.7122 240.794 92.4382 240.343C87.2621 239.893 82.722 239.335 78.2601 238.248C73.7688 237.16 69.4442 235.564 64.728 233.076C59.4933 230.305 54.1018 228.454 48.3386 227.054C43.143 225.8 37.6047 224.909 31.5677 224.057C31.4405 224.801 31.1861 225.506 30.8241 226.162C30.3348 227.044 29.6499 227.827 28.8182 228.464C28.055 229.061 27.1646 229.531 26.1861 229.855C25.325 230.139 24.3955 230.315 23.4267 230.344C23.2897 230.354 23.1527 230.364 23.0158 230.344H22.8886L8.80842 230.109C8.691 230.119 8.57359 230.119 8.45618 230.109C8.42683 230.09 8.41705 230.09 8.40726 230.09H8.39748H8.33877H8.28985C7.20376 230.06 6.17636 229.864 5.23691 229.522C4.23886 229.159 3.32889 228.63 2.56571 227.984C1.79273 227.328 1.15672 226.554 0.716409 225.682C0.305459 224.87 0.0608333 223.969 0.0119131 223.019C0.00212657 222.881 0.00212657 222.744 0.0119131 222.607V222.509L1.57746 161.141C1.60681 160.074 1.89057 159.075 2.3798 158.174C2.83967 157.332 3.47568 156.587 4.23889 155.96C4.28781 155.911 4.33673 155.872 4.38566 155.833C5.17822 155.226 6.11755 154.726 7.1548 154.403C8.12348 154.1 9.17044 153.933 10.2566 153.953L24.8455 154.198C25.9511 154.217 26.9981 154.413 27.9375 154.746C28.9453 155.108 29.8651 155.637 30.6478 156.293C31.4599 156.969 32.1057 157.802 32.5558 158.722C32.9765 159.584 33.2096 160.525 33.2194 161.514ZM0.00978646 222.519L0 222.578L0.00978646 222.529V222.519ZM23.2287 167.439C23.8745 169.143 23.7669 170.955 23.0722 172.502C22.3775 174.049 21.0957 175.323 19.3735 175.969C17.6709 176.615 15.8609 176.508 14.3149 175.812C12.7787 175.117 11.4969 173.834 10.8511 172.11C10.2054 170.406 10.313 168.594 11.0077 167.047C11.7024 165.5 12.9842 164.226 14.6966 163.58C16.3992 162.934 18.2092 163.041 19.7552 163.737C21.3012 164.442 22.583 165.725 23.2287 167.439ZM18.6886 170.524C18.5027 170.945 18.1505 171.298 17.6906 171.474C17.2209 171.65 16.7317 171.621 16.3012 171.435C15.8804 171.249 15.5282 170.896 15.352 170.436C15.1759 169.966 15.2053 169.476 15.401 169.045C15.5869 168.624 15.9391 168.271 16.399 168.095C16.8687 167.919 17.3579 167.948 17.7786 168.144C18.1994 168.33 18.5516 168.683 18.7278 169.143C18.9137 169.603 18.8843 170.093 18.6886 170.524Z" fill="white"/>
<path d="M87.3424 18.6709C87.0208 18.7571 86.6664 18.7211 86.3538 18.5406L85.473 18.032C84.8505 17.6726 84.6368 16.875 84.9962 16.2525C85.3556 15.6299 86.1532 15.4162 86.7758 15.7756L87.6566 16.2842C88.2791 16.6436 88.4928 17.4412 88.1334 18.0637C87.9529 18.3764 87.664 18.5848 87.3424 18.6709Z" fill="white"/>
<path d="M120.755 27.8556C120.256 27.9895 119.703 27.8157 119.375 27.3776L118.254 25.8807C117.825 25.3065 117.939 24.4899 118.518 24.0591C119.088 23.6306 119.909 23.746 120.339 24.3224L121.46 25.8192C121.889 26.3935 121.775 27.2101 121.196 27.6409C121.062 27.7411 120.912 27.8137 120.755 27.8556Z" fill="white"/>
<path d="M79.0117 22.8907C78.6901 22.9769 78.3357 22.9408 78.0231 22.7603C77.4006 22.4009 77.1868 21.6033 77.5463 20.9808L78.849 18.7244C79.2084 18.1018 80.006 17.8881 80.6286 18.2475C81.2511 18.607 81.4648 19.4046 81.1054 20.0271L79.8027 22.2835C79.6237 22.5934 79.3333 22.8045 79.0117 22.8907Z" fill="white"/>
<path d="M83.1763 31.3116C82.8547 31.3978 82.5003 31.3618 82.1877 31.1813C81.5652 30.8218 81.3515 30.0242 81.7109 29.4017L85.6191 22.6325C85.9785 22.01 86.7761 21.7963 87.3986 22.1557C88.0212 22.5151 88.2349 23.3127 87.8755 23.9353L83.9673 30.7044C83.7889 31.0165 83.4979 31.2255 83.1763 31.3116Z" fill="white"/>
<path d="M108 45.6451C107.678 45.7313 107.324 45.6953 107.011 45.5148C106.388 45.1553 106.175 44.3577 106.534 43.7352L110.442 36.966C110.802 36.3435 111.599 36.1298 112.222 36.4892C112.844 36.8486 113.058 37.6462 112.699 38.2688L108.791 45.0379C108.609 45.3484 108.321 45.559 108 45.6451Z" fill="white"/>
<path d="M117.374 45.0406C117.052 45.1268 116.698 45.0907 116.385 44.9102C115.763 44.5508 115.549 43.7532 115.909 43.1307L117.213 40.8737C117.573 40.2512 118.37 40.0374 118.993 40.3969C119.616 40.7563 119.829 41.5539 119.47 42.1764L118.165 44.4334C117.984 44.7439 117.696 44.9544 117.374 45.0406Z" fill="white"/>
<path d="M123.853 29.0158C123.424 28.4416 122.605 28.3186 122.032 28.7525C121.455 29.1827 121.339 29.9999 121.768 30.5742C123.025 32.255 123.344 34.4216 122.623 36.4739L108.236 28.1656L113.95 20.1175L115.869 22.6826C116.198 23.1207 116.75 23.2945 117.25 23.1607C117.404 23.1193 117.557 23.0462 117.693 22.9454C118.269 22.5152 118.386 21.7002 117.956 21.1237L115.119 17.3292L113.469 11.1879C112.911 9.10605 110.764 7.86612 108.682 8.42396L102.539 10.0698L88.0519 8.34236C84.5256 7.91765 81.0848 9.63931 79.2042 12.8939C79.0279 13.1962 78.9784 13.5518 79.0665 13.889C79.1539 14.2241 79.373 14.5101 79.6748 14.6843L82.1133 16.0922C82.7359 16.4516 83.5335 16.2379 83.8929 15.6153C84.2523 14.9928 84.0386 14.1952 83.416 13.8358L82.19 13.1279C83.5359 11.5218 85.6076 10.6771 87.7427 10.9277L100.709 12.4746L96.5982 21.4466L91.1128 18.2814C90.4902 17.922 89.6926 18.1357 89.3332 18.7583C88.9738 19.3808 89.1875 20.1784 89.81 20.5378L95.5081 23.8276L93.1429 28.9883C92.8421 29.6411 93.1298 30.4143 93.7841 30.7124C94.4363 31.011 95.2107 30.7277 95.5082 30.0712L103.563 12.4934L109.355 10.9416C110.047 10.7561 110.765 11.1704 110.95 11.8629L112.502 17.6541L90.8173 48.1977L87.9628 46.5496L93.8861 33.6222C94.1863 32.9672 93.8987 32.194 93.2459 31.8933C92.5916 31.5952 91.8178 31.8807 91.517 32.5335L85.6931 45.2413L81.4903 42.8148C80.8677 42.4554 80.0701 42.6691 79.7107 43.2916C79.3513 43.9142 79.565 44.7118 80.1875 45.0712L95.9842 54.1896C96.2968 54.3701 96.6518 54.4082 96.9734 54.3221C97.295 54.2359 97.5838 54.0275 97.7643 53.7149C98.1238 53.0923 97.91 52.2947 97.2875 51.9353L93.0846 49.5088L106.722 30.3017L122.552 39.4433C122.817 39.5998 123.136 39.6133 123.44 39.5317C123.848 39.4226 124.231 39.1383 124.434 38.7828C126.214 35.6999 125.986 31.8635 123.853 29.0158Z" fill="white"/>
</svg>
