<svg width="236" height="294" viewBox="0 0 236 294" fill="none" xmlns="http://www.w3.org/2000/svg">
<path d="M101.333 149.09C88.8289 148.61 78.7259 146.232 71.4298 140.495C63.4288 134.204 59.3948 124.365 58.5813 110.499L58.4182 107.718L61.1788 107.349C62.7106 107.145 63.4162 106.766 63.7396 106.504C64.0109 106.285 64.2156 105.989 64.3586 105.395C64.5212 104.72 64.5646 103.819 64.5288 102.53C64.518 102.142 64.4979 101.686 64.4763 101.193C64.4352 100.261 64.3885 99.1993 64.3885 98.226V60.1488C64.0874 51.2809 65.7983 42.458 69.3825 34.3428C76.8936 17.1212 92.1385 7.50413 108.599 4.94595C125.008 2.39585 142.836 6.81078 155.898 17.8412L155.981 17.9111L156.059 17.9867C162.048 23.8342 166.603 30.9778 169.388 38.8622L169.395 38.8823L169.402 38.9026C172.226 47.2791 172.944 57.4531 173 67.5045C173.028 72.5588 172.888 77.657 172.743 82.5523C172.732 82.9176 172.721 83.2816 172.71 83.6444C172.575 88.1633 172.446 92.4829 172.446 96.4924C172.446 97.7754 172.367 99.079 172.298 100.202C172.271 100.653 172.245 101.076 172.227 101.456C172.158 102.919 172.187 103.914 172.372 104.673C172.529 105.318 172.787 105.75 173.283 106.138C173.858 106.588 174.94 107.12 176.998 107.511C177.005 107.512 177.018 107.514 177.039 107.516H177.111C182.724 107.516 188.321 106.427 192.433 103.923C196.377 101.522 199.063 97.7814 199.149 91.8553C199.149 91.8552 199.149 91.8551 199.149 91.855L202.149 91.8986C202.172 90.323 202.241 88.6986 202.311 87.0498C202.674 78.4837 203.066 69.2616 197.141 62.8303L101.333 149.09ZM101.333 149.09V149.168H104.333H104.345L104.368 146.168H107.333C107.333 145.847 107.309 145.529 107.264 145.215C107.817 142.561 110.161 140.612 112.928 140.593M101.333 149.09L112.928 140.593M112.928 140.593C112.93 140.593 112.933 140.593 112.935 140.593L112.917 137.593H125.27M112.928 140.593L125.262 140.593L125.27 137.593M125.27 137.593V140.593H125.267C128.455 140.604 131.026 143.17 131.047 146.355M125.27 137.593C130.112 137.606 134.021 141.51 134.047 146.347M134.047 146.347H131.047V146.355M134.047 146.347V147.75L131.047 146.355M134.047 146.347L131.047 146.363C131.047 146.36 131.047 146.357 131.047 146.355M41.9087 64.8457C44.846 61.9782 47.4995 60.661 50.22 60.0169C53.0773 59.3405 56.1312 59.3653 60.1183 59.4367L63.1155 59.4903L63.1715 56.4932C63.3173 48.6902 65.0302 40.9972 68.2125 33.8757L68.218 33.8633L68.2234 33.851C75.7947 16.4894 91.0636 6.55096 107.951 3.79244C124.859 1.03037 143.2 5.51214 156.632 16.8283C162.926 22.8584 167.707 30.2875 170.583 38.5067C172.415 44.3775 173.503 50.4442 173.834 56.5858L173.989 59.467L176.874 59.4241C180.787 59.3658 183.835 59.3671 186.679 60.0524C189.378 60.7027 191.998 62.0039 194.847 64.7678L41.9087 64.8457ZM156.686 109.736C156.793 121.607 150.829 132.616 141.033 139.058C138.235 133.035 132.151 129.003 125.277 128.99H125.271H112.918H112.912C105.919 129.004 99.707 133.182 96.9777 139.446C96.4207 139.415 95.8704 139.378 95.3273 139.334C91.5288 136.929 88.2601 133.802 85.6919 130.122C81.521 124.131 79.2952 117.013 79.3188 109.719V109.709V71.0057C79.3188 48.868 96.3969 30.108 118.002 30.108C139.608 30.108 156.686 48.8696 156.686 71.0057V109.709V109.723L156.686 109.736ZM208.014 188.492L208.024 188.501C223.465 201.907 233 219.818 233 237.036V268.922C232.76 281.271 222.598 291.133 210.228 290.999L210.212 290.998H210.195H25.8048H25.7884L25.772 290.999C13.4012 291.134 3.23938 281.271 3 268.921V237.036C3 219.819 12.5477 201.895 27.976 188.501L27.9862 188.492C43.2455 175.122 62.7989 167.654 83.0914 167.453H152.912C173.204 167.654 192.754 175.122 208.014 188.492Z" stroke="white" stroke-width="6"/>
</svg>
